<svg width="92" height="44" viewBox="0 0 92 44" fill="none" xmlns="http://www.w3.org/2000/svg"><g filter="url(#filter0_dd)"><path d="M30.159 21.61v3.96h-15.87v-3.15l8.1-7.65c.86-.82 1.44-1.52 1.74-2.1.3-.6.45-1.19.45-1.77 0-.84-.29-1.48-.87-1.92-.56-.46-1.39-.69-2.49-.69-.92 0-1.75.18-2.49.54-.74.34-1.36.86-1.86 1.56l-3.54-2.28c.82-1.22 1.95-2.17 3.39-2.85 1.44-.7 3.09-1.05 4.95-1.05 1.56 0 2.92.26 4.08.78 1.18.5 2.09 1.22 2.73 2.16.66.92.99 2.01.99 3.27 0 1.14-.24 2.21-.72 3.21s-1.41 2.14-2.79 3.42l-4.83 4.56h9.03zm5.088-1.62c.84 0 1.53.27 2.07.81.54.52.81 1.21.81 2.07 0 .4-.05.8-.15 1.2-.1.4-.32 1-.66 1.8l-1.71 4.32h-2.97l1.32-4.77c-.5-.2-.9-.52-1.2-.96-.28-.46-.42-.99-.42-1.59 0-.86.27-1.55.81-2.07.56-.54 1.26-.81 2.1-.81zM47.69 4.21c2.94 0 5.24.9 6.9 2.7 1.66 1.78 2.49 4.35 2.49 7.71 0 2.38-.45 4.42-1.35 6.12-.88 1.7-2.13 2.99-3.75 3.87-1.62.88-3.49 1.32-5.61 1.32-1.12 0-2.19-.12-3.21-.36-1.02-.26-1.89-.62-2.61-1.08l1.8-3.57c1.02.7 2.33 1.05 3.93 1.05 1.78 0 3.19-.52 4.23-1.56 1.04-1.06 1.6-2.58 1.68-4.56-1.26 1.26-3 1.89-5.22 1.89-1.34 0-2.56-.27-3.66-.81s-1.97-1.3-2.61-2.28c-.64-1-.96-2.15-.96-3.45 0-1.4.35-2.63 1.05-3.69.7-1.06 1.65-1.87 2.85-2.43 1.22-.58 2.57-.87 4.05-.87zm.36 9.9c1.06 0 1.92-.29 2.58-.87.68-.6 1.02-1.36 1.02-2.28 0-.92-.33-1.67-.99-2.25-.64-.58-1.53-.87-2.67-.87-1.04 0-1.89.28-2.55.84-.64.56-.96 1.32-.96 2.28 0 .96.32 1.73.96 2.31.66.56 1.53.84 2.61.84zm18.59 11.46v-4.508l-2.254 3.78h-.924l-2.198-3.794v4.522H59.29v-7.532h2.282l2.408 4.354 2.562-4.354h2.044l.028 7.532H66.64zm11.29-7.532v7.532h-2.184v-5.74h-2.38l-.07 1.33c-.037.99-.13 1.81-.28 2.464-.15.654-.392 1.167-.728 1.54-.336.373-.802.56-1.4.56a4.69 4.69 0 01-1.134-.168l.112-1.792c.15.019.257.028.322.028.327 0 .57-.117.728-.35.168-.242.28-.546.336-.91.056-.373.098-.863.126-1.47l.112-3.024h6.44zm2.1 0h2.17v2.94h3.276v-2.94h2.184v7.532h-2.183v-2.814H82.2v2.814h-2.17v-7.532z" fill="url(#paint0_linear)"/></g><defs><linearGradient id="paint0_linear" x1="51" y1="-3.43" x2="51" y2="33.57" gradientUnits="userSpaceOnUse"><stop stop-color="#1A9F29"/><stop offset="1" stop-color="#93D600"/></linearGradient><filter id="filter0_dd" x=".299" y=".953" width="91.433" height="42.267" filterUnits="userSpaceOnUse" color-interpolation-filters="sRGB"><feFlood flood-opacity="0" result="BackgroundImageFix"/><feColorMatrix in="SourceAlpha" values="0 0 0 0 0 0 0 0 0 0 0 0 0 0 0 0 0 0 127 0"/><feOffset dx="-6.515" dy="6.515"/><feGaussianBlur stdDeviation="3.257"/><feColorMatrix values="0 0 0 0 0 0 0 0 0 0 0 0 0 0 0 0 0 0 0.13 0"/><feBlend in2="BackgroundImageFix" result="effect1_dropShadow"/><feColorMatrix in="SourceAlpha" values="0 0 0 0 0 0 0 0 0 0 0 0 0 0 0 0 0 0 127 0"/><feOffset dy=".814"/><feGaussianBlur stdDeviation="2.036"/><feColorMatrix values="0 0 0 0 0.443137 0 0 0 0 0.776471 0 0 0 0 0.0470588 0 0 0 0.5 0"/><feBlend in2="effect1_dropShadow" result="effect2_dropShadow"/><feBlend in="SourceGraphic" in2="effect2_dropShadow" result="shape"/></filter></defs></svg>