<svg width="70" height="39" viewBox="0 0 70 39" fill="none" xmlns="http://www.w3.org/2000/svg"><g filter="url(#filter0_dd)"><path d="M30.791 20.685v3.96h-15.87v-3.15l8.1-7.65c.86-.82 1.44-1.52 1.74-2.1.3-.6.45-1.19.45-1.77 0-.84-.29-1.48-.87-1.92-.56-.46-1.39-.69-2.49-.69-.92 0-1.75.18-2.49.54-.74.34-1.36.86-1.86 1.56l-3.54-2.28c.82-1.22 1.95-2.17 3.39-2.85 1.44-.7 3.09-1.05 4.95-1.05 1.56 0 2.92.26 4.08.78 1.18.5 2.09 1.22 2.73 2.16.66.92.99 2.01.99 3.27 0 1.14-.24 2.21-.72 3.21s-1.41 2.14-2.79 3.42l-4.83 4.56h9.03zm11.815-8.49c1.84.3 3.25.99 4.23 2.07.98 1.06 1.47 2.38 1.47 3.96 0 1.22-.32 2.35-.96 3.39-.64 1.02-1.62 1.84-2.94 2.46-1.3.62-2.9.93-4.8.93-1.48 0-2.94-.19-4.38-.57-1.42-.4-2.63-.96-3.63-1.68l1.89-3.72c.8.6 1.72 1.07 2.76 1.41 1.06.32 2.14.48 3.24.48 1.22 0 2.18-.23 2.88-.69.7-.48 1.05-1.15 1.05-2.01 0-1.72-1.31-2.58-3.93-2.58h-2.22v-3.21l4.32-4.89h-8.94v-3.9h14.7v3.15l-4.74 5.4zm17.608 0c1.84.3 3.25.99 4.23 2.07.98 1.06 1.47 2.38 1.47 3.96 0 1.22-.32 2.35-.96 3.39-.64 1.02-1.62 1.84-2.94 2.46-1.3.62-2.9.93-4.8.93-1.48 0-2.94-.19-4.38-.57-1.42-.4-2.63-.96-3.63-1.68l1.89-3.72c.8.6 1.72 1.07 2.76 1.41 1.06.32 2.14.48 3.24.48 1.22 0 2.18-.23 2.88-.69.7-.48 1.05-1.15 1.05-2.01 0-1.72-1.31-2.58-3.93-2.58h-2.22v-3.21l4.32-4.89h-8.94v-3.9h14.7v3.15l-4.74 5.4z" fill="url(#paint0_linear)"/></g><defs><linearGradient id="paint0_linear" x1="40.459" y1="-4.355" x2="40.459" y2="32.289" gradientUnits="userSpaceOnUse"><stop stop-color="#1A9F29"/><stop offset="1" stop-color="#93D600"/></linearGradient><filter id="filter0_dd" x=".932" y=".027" width="69.054" height="38.007" filterUnits="userSpaceOnUse" color-interpolation-filters="sRGB"><feFlood flood-opacity="0" result="BackgroundImageFix"/><feColorMatrix in="SourceAlpha" values="0 0 0 0 0 0 0 0 0 0 0 0 0 0 0 0 0 0 127 0"/><feOffset dx="-6.515" dy="6.515"/><feGaussianBlur stdDeviation="3.257"/><feColorMatrix values="0 0 0 0 0 0 0 0 0 0 0 0 0 0 0 0 0 0 0.13 0"/><feBlend in2="BackgroundImageFix" result="effect1_dropShadow"/><feColorMatrix in="SourceAlpha" values="0 0 0 0 0 0 0 0 0 0 0 0 0 0 0 0 0 0 127 0"/><feOffset dy=".814"/><feGaussianBlur stdDeviation="2.036"/><feColorMatrix values="0 0 0 0 0.443137 0 0 0 0 0.776471 0 0 0 0 0.0470588 0 0 0 0.5 0"/><feBlend in2="effect1_dropShadow" result="effect2_dropShadow"/><feBlend in="SourceGraphic" in2="effect2_dropShadow" result="shape"/></filter></defs></svg>