<svg width="96" height="39" viewBox="0 0 96 39" fill="none" xmlns="http://www.w3.org/2000/svg"><g filter="url(#filter0_dd)"><path d="M32.736 21.16h-3.42v4.41h-4.74v-4.41h-11.31v-3.27l9.9-13.32h5.1l-9.18 12.63h5.64v-3.93h4.59v3.93h3.42v3.96zM44.3 12.4c1.34 0 2.56.27 3.66.81s1.97 1.31 2.61 2.31c.64.98.96 2.12.96 3.42 0 1.4-.35 2.63-1.05 3.69-.7 1.06-1.66 1.88-2.88 2.46-1.2.56-2.54.84-4.02.84-2.94 0-5.24-.9-6.9-2.7-1.66-1.8-2.49-4.37-2.49-7.71 0-2.38.45-4.42 1.35-6.12.9-1.7 2.15-2.99 3.75-3.87 1.62-.88 3.49-1.32 5.61-1.32 1.12 0 2.19.13 3.21.39 1.04.24 1.92.59 2.64 1.05l-1.8 3.57c-1.04-.7-2.35-1.05-3.93-1.05-1.78 0-3.19.52-4.23 1.56-1.04 1.04-1.6 2.55-1.68 4.53 1.24-1.24 2.97-1.86 5.19-1.86zm-.99 9.9c1.04 0 1.88-.28 2.52-.84.66-.56.99-1.32.99-2.28 0-.96-.33-1.72-.99-2.28-.64-.58-1.5-.87-2.58-.87-1.06 0-1.93.3-2.61.9-.68.58-1.02 1.33-1.02 2.25 0 .92.33 1.67.99 2.25.66.58 1.56.87 2.7.87zm18.981 3.63c-1.74 0-3.29-.43-4.65-1.29-1.36-.86-2.43-2.1-3.21-3.72-.76-1.64-1.14-3.59-1.14-5.85s.38-4.2 1.14-5.82c.78-1.64 1.85-2.89 3.21-3.75 1.36-.86 2.91-1.29 4.65-1.29 1.74 0 3.29.43 4.65 1.29 1.36.86 2.42 2.11 3.18 3.75.78 1.62 1.17 3.56 1.17 5.82 0 2.26-.39 4.21-1.17 5.85-.76 1.62-1.82 2.86-3.18 3.72-1.36.86-2.91 1.29-4.65 1.29zm0-4.11c1.28 0 2.28-.55 3-1.65.74-1.1 1.11-2.8 1.11-5.1s-.37-4-1.11-5.1c-.72-1.1-1.72-1.65-3-1.65-1.26 0-2.26.55-3 1.65-.72 1.1-1.08 2.8-1.08 5.1s.36 4 1.08 5.1c.74 1.1 1.74 1.65 3 1.65zm20.361 4.11c-1.74 0-3.29-.43-4.65-1.29-1.36-.86-2.43-2.1-3.21-3.72-.76-1.64-1.14-3.59-1.14-5.85s.38-4.2 1.14-5.82c.78-1.64 1.85-2.89 3.21-3.75 1.36-.86 2.91-1.29 4.65-1.29 1.74 0 3.29.43 4.65 1.29 1.36.86 2.42 2.11 3.18 3.75.78 1.62 1.17 3.56 1.17 5.82 0 2.26-.39 4.21-1.17 5.85-.76 1.62-1.82 2.86-3.18 3.72-1.36.86-2.91 1.29-4.65 1.29zm0-4.11c1.28 0 2.28-.55 3-1.65.74-1.1 1.11-2.8 1.11-5.1s-.37-4-1.11-5.1c-.72-1.1-1.72-1.65-3-1.65-1.26 0-2.26.55-3 1.65-.72 1.1-1.08 2.8-1.08 5.1s.36 4 1.08 5.1c.74 1.1 1.74 1.65 3 1.65z" fill="url(#paint0_linear)"/></g><defs><linearGradient id="paint0_linear" x1="52.59" y1="-3.43" x2="52.59" y2="33.215" gradientUnits="userSpaceOnUse"><stop stop-color="#1A9F29"/><stop offset="1" stop-color="#93D600"/></linearGradient><filter id="filter0_dd" x=".237" y=".953" width="95.487" height="38.007" filterUnits="userSpaceOnUse" color-interpolation-filters="sRGB"><feFlood flood-opacity="0" result="BackgroundImageFix"/><feColorMatrix in="SourceAlpha" values="0 0 0 0 0 0 0 0 0 0 0 0 0 0 0 0 0 0 127 0"/><feOffset dx="-6.515" dy="6.515"/><feGaussianBlur stdDeviation="3.257"/><feColorMatrix values="0 0 0 0 0 0 0 0 0 0 0 0 0 0 0 0 0 0 0.13 0"/><feBlend in2="BackgroundImageFix" result="effect1_dropShadow"/><feColorMatrix in="SourceAlpha" values="0 0 0 0 0 0 0 0 0 0 0 0 0 0 0 0 0 0 127 0"/><feOffset dy=".814"/><feGaussianBlur stdDeviation="2.036"/><feColorMatrix values="0 0 0 0 0.443137 0 0 0 0 0.776471 0 0 0 0 0.0470588 0 0 0 0.5 0"/><feBlend in2="effect1_dropShadow" result="effect2_dropShadow"/><feBlend in="SourceGraphic" in2="effect2_dropShadow" result="shape"/></filter></defs></svg>