<svg width="20" height="24" viewBox="0 0 20 24" fill="none" xmlns="http://www.w3.org/2000/svg"><path d="M7.125 1.01v7.187a3.354 3.354 0 11-6.708 0v-5.75a2.395 2.395 0 114.792 0V6.76a1.438 1.438 0 01-2.875 0V2.926h.958V6.76a.48.48 0 00.958 0V2.447A1.44 1.44 0 002.813 1.01a1.44 1.44 0 00-1.438 1.437v5.75a2.399 2.399 0 002.396 2.396 2.399 2.399 0 002.396-2.396V1.01h.958zm1.917 0v1.916c3.145 0 3.615 2.824 2.875 5.75 0 0 5.75-1.581 5.75 2.355v10.104H3.292v-7.691a5.229 5.229 0 01-1.917-.558v10.165h18.209V10.223c0-1.766-5.35-9.213-10.542-9.213z" fill="#9C9C9C"/></svg>