<svg width="30" height="30" viewBox="0 0 30 30" fill="none" xmlns="http://www.w3.org/2000/svg"><path d="M21.09 9.278v1.541c0 .36-.293.655-.654.655h-1.541a.653.653 0 01-.653-.655V9.28c0-.361.29-.654.653-.654h1.541c.36 0 .653.293.653.653zm-6.376 8.99a3.268 3.268 0 100-6.535A3.266 3.266 0 0011.447 15a3.266 3.266 0 003.267 3.268zm5.174-3.997c.034.238.056.481.056.728A5.23 5.23 0 119.484 15c0-.248.022-.49.056-.727a5.13 5.13 0 01.143-.689H8.34v7.139c0 .36.293.653.654.653h11.443c.36 0 .653-.292.653-.653v-7.139h-1.344c.06.224.11.453.143.687zm9.398.729c0 8.047-6.525 14.571-14.572 14.571C6.667 29.571.143 23.047.143 15S6.667.429 14.714.429 29.286 6.953 29.286 15zm-6.072-6.539a1.961 1.961 0 00-1.96-1.961H8.174a1.961 1.961 0 00-1.96 1.961v13.077a1.96 1.96 0 001.96 1.962h13.078a1.961 1.961 0 001.961-1.962V8.46z" fill="#1A9F29"/></svg>