<svg width="81" height="81" viewBox="0 0 81 81" fill="none" xmlns="http://www.w3.org/2000/svg"><path d="M41.464 7.106c8.27 5.864 8.247 5.787 18.31 5.727.814 0 1.53.453 1.747 1.103 3.057 9.297 3.14 9.46 11.46 15.18.587.407.757 1.024.58 1.51-3.237 9.337-3.263 9.447 0 18.92.177.484.01 1.1-.583 1.51-8.23 5.664-8.35 5.767-11.457 15.177-.217.65-.933 1.103-1.753 1.103-9.984-.063-10-.163-18.3 5.724-.684.483-1.67.48-2.347 0-8.25-5.837-8.21-5.797-18.31-5.724-.813 0-1.53-.453-1.743-1.096-2.754-8.33-3.024-9.4-9.75-14.007l-1.714-1.18c-.586-.407-.756-1.023-.58-1.51 2.887-8.347 3.33-9.35.644-17.047-.487-1.413-1.247-2.563-.064-3.386 8.194-5.637 8.354-5.74 11.457-15.177.217-.65.933-1.103 1.753-1.103 10.03.07 9.987.16 18.304-5.724.686-.483 1.676-.47 2.346 0zM40.291.083a8.71 8.71 0 00-5.007 1.57c-5.856 4.12-5.9 4.54-10.506 4.54l-3.944-.027h-.026c-3.68 0-6.944 2.284-8.07 5.654-2.707 8.11-1.777 6.85-8.934 11.813-2.25 1.56-3.513 4.04-3.513 6.607 0 .846.137 1.706.423 2.543 2.767 8.093 2.757 6.543 0 14.6a7.829 7.829 0 00-.423 2.543c0 2.567 1.263 5.047 3.517 6.607 7.156 4.963 6.23 3.713 8.933 11.813 1.127 3.37 4.387 5.654 8.07 5.654h.027c8.84-.027 7.296-.517 14.45 4.513a8.717 8.717 0 005.003 1.57 8.71 8.71 0 005.007-1.57c5.866-4.127 5.873-4.537 10.603-4.537l3.847.024h.026c3.68 0 6.944-2.284 8.07-5.654 2.707-8.093 1.76-6.843 8.934-11.813 2.25-1.563 3.513-4.04 3.513-6.607 0-.846-.137-1.706-.423-2.543-2.77-8.093-2.757-6.543 0-14.6a7.845 7.845 0 00.423-2.543c0-2.567-1.263-5.047-3.517-6.607-7.173-4.973-6.226-3.723-8.933-11.813-1.127-3.37-4.387-5.654-8.07-5.654h-.027l-3.853.024c-4.72 0-4.733-.414-10.597-4.537a8.693 8.693 0 00-5.003-1.57zm12.327 51.18c-1.35-.103-1.224-1.353.053-1.59 2.113-.39 3.043-1.523 3.043-2.57 0-.883-.66-1.703-1.83-1.97-1.393-.317-1.106-1.263.054-1.353 1.886-.15 2.813-1.274 2.813-2.35 0-.94-.707-1.847-2.1-2.034-1.43-.19-.963-1.223.053-1.536.87-.267 2.257-.834 2.257-2.517 0-1.12-.833-2.603-3.787-2.483-2.046.083-6.11-.33-8.296-1.474C46.384 25.29 46.02 16.75 42.06 16.75c-2.657 0-3.16 3.01-3.96 5.78-2.863 9.946-8.59 11.77-14.477 12.673V51.75c11.147 0 14.167 5 22.507 5 5.333 0 8.087-2.89 8.087-4.444 0-.556-.454-.956-1.6-1.043z" fill="#1A9F29"/></svg>