<svg width="29" height="21" viewBox="0 0 29 21" fill="none" xmlns="http://www.w3.org/2000/svg"><path d="M8.023.538c.938 0 1.779.374 1.779 1.587 0 2.993-2.334 4.674-3.46 8.599 2.62.28 4.582 2.43 4.582 5.142 0 2.71-2.244 4.954-5.047 4.954-2.71 0-4.953-2.243-4.953-4.954C.924 9.604 5.506.538 8.023.538zm18 0c.938 0 1.779.374 1.779 1.587 0 2.993-2.334 4.674-3.46 8.599 2.62.28 4.582 2.43 4.582 5.142 0 2.71-2.244 4.954-5.047 4.954-2.71 0-4.953-2.243-4.953-4.954 0-6.262 4.582-15.328 7.099-15.328z" fill="#A9A9A9"/></svg>