<svg width="44" height="36" viewBox="0 0 44 36" fill="none" xmlns="http://www.w3.org/2000/svg"><g opacity=".8" filter="url(#filter0_i_1:2443)"><rect width="44" height="36" rx="8" fill="#fff"/></g><g filter="url(#filter1_d_1:2443)"><path fill-rule="evenodd" clip-rule="evenodd" d="M25.853 22.622A9.439 9.439 0 0119.5 25.07c-5.243 0-9.5-4.273-9.5-9.536C10 10.273 14.257 6 19.5 6s9.5 4.273 9.5 9.535a9.513 9.513 0 01-2.44 6.377L34 29.38l-.707.71-7.44-7.468zM19.5 7.004c4.691 0 8.5 3.823 8.5 8.531 0 4.709-3.809 8.532-8.5 8.532S11 20.244 11 15.535c0-4.708 3.809-8.531 8.5-8.531z" fill="#FFC900"/></g><defs><filter id="filter0_i_1:2443" x="0" y="0" width="44" height="36" filterUnits="userSpaceOnUse" color-interpolation-filters="sRGB"><feFlood flood-opacity="0" result="BackgroundImageFix"/><feBlend in="SourceGraphic" in2="BackgroundImageFix" result="shape"/><feColorMatrix in="SourceAlpha" values="0 0 0 0 0 0 0 0 0 0 0 0 0 0 0 0 0 0 127 0" result="hardAlpha"/><feOffset/><feGaussianBlur stdDeviation="4.5"/><feComposite in2="hardAlpha" operator="arithmetic" k2="-1" k3="1"/><feColorMatrix values="0 0 0 0 0 0 0 0 0 0 0 0 0 0 0 0 0 0 0.1 0"/><feBlend in2="shape" result="effect1_innerShadow_1:2443"/></filter><filter id="filter1_d_1:2443" x="8" y="4" width="28" height="28.089" filterUnits="userSpaceOnUse" color-interpolation-filters="sRGB"><feFlood flood-opacity="0" result="BackgroundImageFix"/><feColorMatrix in="SourceAlpha" values="0 0 0 0 0 0 0 0 0 0 0 0 0 0 0 0 0 0 127 0" result="hardAlpha"/><feOffset/><feGaussianBlur stdDeviation="1"/><feColorMatrix values="0 0 0 0 1 0 0 0 0 0.788235 0 0 0 0 0 0 0 0 1 0"/><feBlend in2="BackgroundImageFix" result="effect1_dropShadow_1:2443"/><feBlend in="SourceGraphic" in2="effect1_dropShadow_1:2443" result="shape"/></filter></defs></svg>