<svg width="41" height="40" viewBox="0 0 41 40" fill="none" xmlns="http://www.w3.org/2000/svg"><g filter="url(#filter0_d_1:4280)"><path fill-rule="evenodd" clip-rule="evenodd" d="M24.753 24.56A9.404 9.404 0 0118.424 27c-5.223 0-9.465-4.257-9.465-9.5S13.201 8 18.424 8c5.224 0 9.465 4.257 9.465 9.5a9.48 9.48 0 01-2.431 6.353l7.412 7.44-.704.707-7.412-7.44zM18.424 9c4.674 0 8.469 3.809 8.469 8.5S23.098 26 18.424 26c-4.674 0-8.468-3.809-8.468-8.5S13.75 9 18.424 9z" fill="#FFC900"/></g><defs><filter id="filter0_d_1:4280" x=".959" y="0" width="39.911" height="40" filterUnits="userSpaceOnUse" color-interpolation-filters="sRGB"><feFlood flood-opacity="0" result="BackgroundImageFix"/><feColorMatrix in="SourceAlpha" values="0 0 0 0 0 0 0 0 0 0 0 0 0 0 0 0 0 0 127 0" result="hardAlpha"/><feOffset/><feGaussianBlur stdDeviation="4"/><feColorMatrix values="0 0 0 0 1 0 0 0 0 0.789743 0 0 0 0 0 0 0 0 1 0"/><feBlend in2="BackgroundImageFix" result="effect1_dropShadow_1:4280"/><feBlend in="SourceGraphic" in2="effect1_dropShadow_1:4280" result="shape"/></filter></defs></svg>