<svg width="29" height="30" viewBox="0 0 29 30" fill="none" xmlns="http://www.w3.org/2000/svg"><path d="M14.64 20.626a5.865 5.865 0 01-2.058-.364c-.644-.252-1.148-.574-1.512-.966l.322-.532c.346.364.808.663 1.386.896a5.147 5.147 0 001.848.336c.934 0 1.638-.177 2.114-.532.476-.355.714-.817.714-1.386 0-.439-.126-.789-.378-1.05a2.499 2.499 0 00-.938-.602c-.373-.14-.877-.285-1.512-.434a15.223 15.223 0 01-1.736-.518 2.858 2.858 0 01-1.106-.77c-.298-.355-.448-.826-.448-1.414 0-.476.126-.91.378-1.302.252-.402.635-.719 1.148-.952.523-.233 1.172-.35 1.946-.35.542 0 1.074.08 1.596.238a4.69 4.69 0 011.358.644l-.266.574a4.517 4.517 0 00-1.302-.616 4.804 4.804 0 00-1.386-.21c-.905 0-1.59.182-2.058.546-.466.364-.7.835-.7 1.414 0 .438.126.789.378 1.05a2.5 2.5 0 00.938.602c.374.14.882.29 1.526.448.72.177 1.293.35 1.722.518.43.168.794.425 1.092.77.308.336.462.793.462 1.372 0 .476-.13.91-.392 1.302-.252.392-.644.704-1.176.938-.532.233-1.185.35-1.96.35z" stroke="#108534" stroke-width="1.8" stroke-miterlimit="10" stroke-linejoin="round"/><path d="M10.306 7.01V1.16h17.55v22.099h-6.5v5.2h-19.5V7.009h8.45z" stroke="#108534" stroke-width="1.8" stroke-miterlimit="10" stroke-linejoin="round"/></svg>