<svg width="30" height="30" viewBox="0 0 30 30" fill="none" xmlns="http://www.w3.org/2000/svg"><path d="M14.895 7.923a7.01 7.01 0 00-7.004 7.002c-.002 1.576.461 2.756 1.237 3.991L8.421 21.5l2.65-.696c1.188.705 2.32 1.127 3.819 1.128 3.859 0 7.003-3.141 7.004-7.001a7 7 0 00-7-7.008zm4.119 10.01c-.175.492-1.017.94-1.421 1.001a2.88 2.88 0 01-1.326-.084 12.219 12.219 0 01-1.2-.443c-2.111-.912-3.49-3.038-3.595-3.178-.106-.14-.86-1.14-.86-2.177 0-1.035.544-1.545.737-1.756a.775.775 0 01.561-.263l.403.007c.129.006.303-.048.474.362.175.421.596 1.457.648 1.563.052.105.088.228.017.369-.07.14-.105.228-.21.35l-.316.37c-.105.104-.215.219-.092.43s.545.9 1.17 1.458c.805.718 1.483.94 1.693 1.045.21.104.333.087.457-.053.123-.14.526-.614.667-.825.14-.21.28-.176.473-.106.193.07 1.228.58 1.438.685.21.106.35.158.403.245.055.088.055.509-.121 1zM14.857.43C6.81.429.286 6.953.286 15S6.81 29.571 14.857 29.571 29.43 23.047 29.43 15 22.904.429 14.857.429zm.035 22.925a8.432 8.432 0 01-4.029-1.025L6.398 23.5l1.195-4.365a8.405 8.405 0 01-1.124-4.212C6.47 10.28 10.249 6.5 14.892 6.5a8.368 8.368 0 015.959 2.47 8.37 8.37 0 012.465 5.96c-.001 4.644-3.78 8.424-8.424 8.424z" fill="#1A9F29"/></svg>