<svg width="92" height="44" viewBox="0 0 92 44" fill="none" xmlns="http://www.w3.org/2000/svg">
<g filter="url(#filter0_dd)">
<path d="M30.1588 21.6101V25.5701H14.2888V22.4201L22.3888 14.7701C23.2488 13.9501 23.8288 13.2501 24.1288 12.6701C24.4288 12.0701 24.5788 11.4801 24.5788 10.9001C24.5788 10.0601 24.2888 9.42013 23.7088 8.98013C23.1488 8.52013 22.3188 8.29013 21.2188 8.29013C20.2988 8.29013 19.4688 8.47013 18.7288 8.83013C17.9888 9.17013 17.3688 9.69013 16.8688 10.3901L13.3288 8.11013C14.1488 6.89013 15.2788 5.94013 16.7188 5.26013C18.1588 4.56013 19.8088 4.21013 21.6688 4.21013C23.2288 4.21013 24.5888 4.47013 25.7488 4.99013C26.9288 5.49013 27.8388 6.21013 28.4788 7.15013C29.1388 8.07013 29.4688 9.16013 29.4688 10.4201C29.4688 11.5601 29.2288 12.6301 28.7488 13.6301C28.2688 14.6301 27.3388 15.7701 25.9588 17.0501L21.1288 21.6101H30.1588ZM35.2471 19.9901C36.0871 19.9901 36.7771 20.2601 37.3171 20.8001C37.8571 21.3201 38.1271 22.0101 38.1271 22.8701C38.1271 23.2701 38.0771 23.6701 37.9771 24.0701C37.8771 24.4701 37.6571 25.0701 37.3171 25.8701L35.6071 30.1901H32.6371L33.9571 25.4201C33.4571 25.2201 33.0571 24.9001 32.7571 24.4601C32.4771 24.0001 32.3371 23.4701 32.3371 22.8701C32.3371 22.0101 32.6071 21.3201 33.1471 20.8001C33.7071 20.2601 34.4071 19.9901 35.2471 19.9901ZM47.6887 4.21013C50.6287 4.21013 52.9287 5.11013 54.5887 6.91013C56.2487 8.69013 57.0787 11.2601 57.0787 14.6201C57.0787 17.0001 56.6287 19.0401 55.7287 20.7401C54.8487 22.4401 53.5987 23.7301 51.9787 24.6101C50.3587 25.4901 48.4887 25.9301 46.3687 25.9301C45.2487 25.9301 44.1787 25.8101 43.1587 25.5701C42.1387 25.3101 41.2687 24.9501 40.5487 24.4901L42.3487 20.9201C43.3687 21.6201 44.6787 21.9701 46.2787 21.9701C48.0587 21.9701 49.4687 21.4501 50.5087 20.4101C51.5487 19.3501 52.1087 17.8301 52.1887 15.8501C50.9287 17.1101 49.1887 17.7401 46.9687 17.7401C45.6287 17.7401 44.4087 17.4701 43.3087 16.9301C42.2087 16.3901 41.3387 15.6301 40.6987 14.6501C40.0587 13.6501 39.7387 12.5001 39.7387 11.2001C39.7387 9.80013 40.0887 8.57013 40.7887 7.51013C41.4887 6.45013 42.4387 5.64013 43.6387 5.08013C44.8587 4.50013 46.2087 4.21013 47.6887 4.21013ZM48.0487 14.1101C49.1087 14.1101 49.9687 13.8201 50.6287 13.2401C51.3087 12.6401 51.6487 11.8801 51.6487 10.9601C51.6487 10.0401 51.3187 9.29013 50.6587 8.71013C50.0187 8.13013 49.1287 7.84013 47.9887 7.84013C46.9487 7.84013 46.0987 8.12013 45.4387 8.68013C44.7987 9.24013 44.4787 10.0001 44.4787 10.9601C44.4787 11.9201 44.7987 12.6901 45.4387 13.2701C46.0987 13.8301 46.9687 14.1101 48.0487 14.1101ZM66.6402 25.5701V21.0621L64.3862 24.8421H63.4622L61.2642 21.0481V25.5701H59.2902V18.0381H61.5722L63.9802 22.3921L66.5422 18.0381H68.5862L68.6142 25.5701H66.6402ZM77.9303 18.0381V25.5701H75.7463V19.8301H73.3663L73.2963 21.1601C73.2589 22.1495 73.1656 22.9708 73.0163 23.6241C72.8669 24.2775 72.6243 24.7908 72.2883 25.1641C71.9523 25.5375 71.4856 25.7241 70.8883 25.7241C70.5709 25.7241 70.1929 25.6681 69.7543 25.5561L69.8663 23.7641C70.0156 23.7828 70.1229 23.7921 70.1883 23.7921C70.5149 23.7921 70.7576 23.6755 70.9163 23.4421C71.0843 23.1995 71.1963 22.8961 71.2523 22.5321C71.3083 22.1588 71.3503 21.6688 71.3783 21.0621L71.4903 18.0381H77.9303ZM80.0305 18.0381H82.2005V20.9781H85.4765V18.0381H87.6605V25.5701H85.4765V22.7561H82.2005V25.5701H80.0305V18.0381Z" fill="url(#paint0_linear)"/>
</g>
<defs>
<filter id="filter0_dd" x="0.29932" y="0.952821" width="91.4326" height="42.2666" filterUnits="userSpaceOnUse" color-interpolation-filters="sRGB">
<feFlood flood-opacity="0" result="BackgroundImageFix"/>
<feColorMatrix in="SourceAlpha" type="matrix" values="0 0 0 0 0 0 0 0 0 0 0 0 0 0 0 0 0 0 127 0"/>
<feOffset dx="-6.51465" dy="6.51465"/>
<feGaussianBlur stdDeviation="3.25732"/>
<feColorMatrix type="matrix" values="0 0 0 0 0 0 0 0 0 0 0 0 0 0 0 0 0 0 0.13 0"/>
<feBlend mode="normal" in2="BackgroundImageFix" result="effect1_dropShadow"/>
<feColorMatrix in="SourceAlpha" type="matrix" values="0 0 0 0 0 0 0 0 0 0 0 0 0 0 0 0 0 0 127 0"/>
<feOffset dy="0.814331"/>
<feGaussianBlur stdDeviation="2.03583"/>
<feColorMatrix type="matrix" values="0 0 0 0 0.443137 0 0 0 0 0.776471 0 0 0 0 0.0470588 0 0 0 0.5 0"/>
<feBlend mode="normal" in2="effect1_dropShadow" result="effect2_dropShadow"/>
<feBlend mode="normal" in="SourceGraphic" in2="effect2_dropShadow" result="shape"/>
</filter>
<linearGradient id="paint0_linear" x1="51" y1="-3.42987" x2="51" y2="33.5701" gradientUnits="userSpaceOnUse">
<stop stop-color="#1A9F29"/>
<stop offset="1" stop-color="#93D600"/>
</linearGradient>
</defs>
</svg>
