<svg width="70" height="39" viewBox="0 0 70 39" fill="none" xmlns="http://www.w3.org/2000/svg">
<g filter="url(#filter0_dd)">
<path d="M30.7911 20.6847V24.6447H14.9211V21.4947L23.0211 13.8447C23.8811 13.0247 24.4611 12.3247 24.7611 11.7447C25.0611 11.1447 25.2111 10.5547 25.2111 9.97465C25.2111 9.13465 24.9211 8.49465 24.3411 8.05465C23.7811 7.59465 22.9511 7.36465 21.8511 7.36465C20.9311 7.36465 20.1011 7.54465 19.3611 7.90465C18.6211 8.24465 18.0011 8.76465 17.5011 9.46465L13.9611 7.18465C14.7811 5.96465 15.9111 5.01465 17.3511 4.33465C18.7911 3.63465 20.4411 3.28465 22.3011 3.28465C23.8611 3.28465 25.2211 3.54465 26.3811 4.06465C27.5611 4.56465 28.4711 5.28465 29.1111 6.22465C29.7711 7.14465 30.1011 8.23465 30.1011 9.49465C30.1011 10.6347 29.8611 11.7047 29.3811 12.7047C28.9011 13.7047 27.9711 14.8447 26.5911 16.1247L21.7611 20.6847H30.7911ZM42.6064 12.1947C44.4464 12.4947 45.8564 13.1847 46.8364 14.2647C47.8164 15.3247 48.3064 16.6447 48.3064 18.2247C48.3064 19.4447 47.9864 20.5747 47.3464 21.6147C46.7064 22.6347 45.7264 23.4547 44.4064 24.0747C43.1064 24.6947 41.5064 25.0047 39.6064 25.0047C38.1264 25.0047 36.6664 24.8147 35.2264 24.4347C33.8064 24.0347 32.5964 23.4747 31.5964 22.7547L33.4864 19.0347C34.2864 19.6347 35.2064 20.1047 36.2464 20.4447C37.3064 20.7647 38.3864 20.9247 39.4864 20.9247C40.7064 20.9247 41.6664 20.6947 42.3664 20.2347C43.0664 19.7547 43.4164 19.0847 43.4164 18.2247C43.4164 16.5047 42.1064 15.6447 39.4864 15.6447H37.2664V12.4347L41.5864 7.54465H32.6464V3.64465H47.3464V6.79465L42.6064 12.1947ZM60.2138 12.1947C62.0538 12.4947 63.4638 13.1847 64.4438 14.2647C65.4238 15.3247 65.9138 16.6447 65.9138 18.2247C65.9138 19.4447 65.5938 20.5747 64.9538 21.6147C64.3138 22.6347 63.3338 23.4547 62.0138 24.0747C60.7138 24.6947 59.1138 25.0047 57.2138 25.0047C55.7338 25.0047 54.2738 24.8147 52.8338 24.4347C51.4138 24.0347 50.2038 23.4747 49.2038 22.7547L51.0938 19.0347C51.8938 19.6347 52.8138 20.1047 53.8538 20.4447C54.9138 20.7647 55.9938 20.9247 57.0938 20.9247C58.3138 20.9247 59.2738 20.6947 59.9738 20.2347C60.6738 19.7547 61.0238 19.0847 61.0238 18.2247C61.0238 16.5047 59.7138 15.6447 57.0938 15.6447H54.8738V12.4347L59.1938 7.54465H50.2538V3.64465H64.9538V6.79465L60.2138 12.1947Z" fill="url(#paint0_linear)"/>
</g>
<defs>
<filter id="filter0_dd" x="0.931644" y="0.0273445" width="69.0537" height="38.0066" filterUnits="userSpaceOnUse" color-interpolation-filters="sRGB">
<feFlood flood-opacity="0" result="BackgroundImageFix"/>
<feColorMatrix in="SourceAlpha" type="matrix" values="0 0 0 0 0 0 0 0 0 0 0 0 0 0 0 0 0 0 127 0"/>
<feOffset dx="-6.51465" dy="6.51465"/>
<feGaussianBlur stdDeviation="3.25732"/>
<feColorMatrix type="matrix" values="0 0 0 0 0 0 0 0 0 0 0 0 0 0 0 0 0 0 0.13 0"/>
<feBlend mode="normal" in2="BackgroundImageFix" result="effect1_dropShadow"/>
<feColorMatrix in="SourceAlpha" type="matrix" values="0 0 0 0 0 0 0 0 0 0 0 0 0 0 0 0 0 0 127 0"/>
<feOffset dy="0.814331"/>
<feGaussianBlur stdDeviation="2.03583"/>
<feColorMatrix type="matrix" values="0 0 0 0 0.443137 0 0 0 0 0.776471 0 0 0 0 0.0470588 0 0 0 0.5 0"/>
<feBlend mode="normal" in2="effect1_dropShadow" result="effect2_dropShadow"/>
<feBlend mode="normal" in="SourceGraphic" in2="effect2_dropShadow" result="shape"/>
</filter>
<linearGradient id="paint0_linear" x1="40.4594" y1="-4.35535" x2="40.4594" y2="32.2895" gradientUnits="userSpaceOnUse">
<stop stop-color="#1A9F29"/>
<stop offset="1" stop-color="#93D600"/>
</linearGradient>
</defs>
</svg>
