<svg width="73" height="39" viewBox="0 0 73 39" fill="none" xmlns="http://www.w3.org/2000/svg">
<g filter="url(#filter0_dd)">
<path d="M30.1975 21.6101V25.5701H14.3275V22.4201L22.4275 14.7701C23.2875 13.9501 23.8675 13.2501 24.1675 12.6701C24.4675 12.0701 24.6175 11.4801 24.6175 10.9001C24.6175 10.0601 24.3275 9.42013 23.7475 8.98013C23.1875 8.52013 22.3575 8.29013 21.2575 8.29013C20.3375 8.29013 19.5075 8.47013 18.7675 8.83013C18.0275 9.17013 17.4075 9.69013 16.9075 10.3901L13.3675 8.11013C14.1875 6.89013 15.3175 5.94013 16.7575 5.26013C18.1975 4.56013 19.8475 4.21013 21.7075 4.21013C23.2675 4.21013 24.6275 4.47013 25.7875 4.99013C26.9675 5.49013 27.8775 6.21013 28.5175 7.15013C29.1775 8.07013 29.5075 9.16013 29.5075 10.4201C29.5075 11.5601 29.2675 12.6301 28.7875 13.6301C28.3075 14.6301 27.3775 15.7701 25.9975 17.0501L21.1675 21.6101H30.1975ZM48.5842 4.57013V7.72013L40.7842 25.5701H35.5042L43.0342 8.53013H36.0742V11.9501H31.7542V4.57013H48.5842ZM59.1618 25.9301C57.4218 25.9301 55.8718 25.5001 54.5118 24.6401C53.1518 23.7801 52.0818 22.5401 51.3018 20.9201C50.5418 19.2801 50.1618 17.3301 50.1618 15.0701C50.1618 12.8101 50.5418 10.8701 51.3018 9.25013C52.0818 7.61013 53.1518 6.36013 54.5118 5.50013C55.8718 4.64013 57.4218 4.21013 59.1618 4.21013C60.9018 4.21013 62.4518 4.64013 63.8118 5.50013C65.1718 6.36013 66.2318 7.61013 66.9918 9.25013C67.7718 10.8701 68.1618 12.8101 68.1618 15.0701C68.1618 17.3301 67.7718 19.2801 66.9918 20.9201C66.2318 22.5401 65.1718 23.7801 63.8118 24.6401C62.4518 25.5001 60.9018 25.9301 59.1618 25.9301ZM59.1618 21.8201C60.4418 21.8201 61.4418 21.2701 62.1618 20.1701C62.9018 19.0701 63.2718 17.3701 63.2718 15.0701C63.2718 12.7701 62.9018 11.0701 62.1618 9.97013C61.4418 8.87013 60.4418 8.32013 59.1618 8.32013C57.9018 8.32013 56.9018 8.87013 56.1618 9.97013C55.4418 11.0701 55.0818 12.7701 55.0818 15.0701C55.0818 17.3701 55.4418 19.0701 56.1618 20.1701C56.9018 21.2701 57.9018 21.8201 59.1618 21.8201Z" fill="url(#paint0_linear)"/>
</g>
<defs>
<filter id="filter0_dd" x="0.338383" y="0.952821" width="71.8952" height="38.0066" filterUnits="userSpaceOnUse" color-interpolation-filters="sRGB">
<feFlood flood-opacity="0" result="BackgroundImageFix"/>
<feColorMatrix in="SourceAlpha" type="matrix" values="0 0 0 0 0 0 0 0 0 0 0 0 0 0 0 0 0 0 127 0"/>
<feOffset dx="-6.51465" dy="6.51465"/>
<feGaussianBlur stdDeviation="3.25732"/>
<feColorMatrix type="matrix" values="0 0 0 0 0 0 0 0 0 0 0 0 0 0 0 0 0 0 0.13 0"/>
<feBlend mode="normal" in2="BackgroundImageFix" result="effect1_dropShadow"/>
<feColorMatrix in="SourceAlpha" type="matrix" values="0 0 0 0 0 0 0 0 0 0 0 0 0 0 0 0 0 0 127 0"/>
<feOffset dy="0.814331"/>
<feGaussianBlur stdDeviation="2.03583"/>
<feColorMatrix type="matrix" values="0 0 0 0 0.443137 0 0 0 0 0.776471 0 0 0 0 0.0470588 0 0 0 0.5 0"/>
<feBlend mode="normal" in2="effect1_dropShadow" result="effect2_dropShadow"/>
<feBlend mode="normal" in="SourceGraphic" in2="effect2_dropShadow" result="shape"/>
</filter>
<linearGradient id="paint0_linear" x1="41.3453" y1="-3.42987" x2="41.3453" y2="33.215" gradientUnits="userSpaceOnUse">
<stop stop-color="#1A9F29"/>
<stop offset="1" stop-color="#93D600"/>
</linearGradient>
</defs>
</svg>
