<svg width="122" height="39" viewBox="0 0 122 39" fill="none" xmlns="http://www.w3.org/2000/svg">
<g filter="url(#filter0_dd)">
<path d="M24.4701 13.12C26.3101 13.42 27.7201 14.11 28.7001 15.19C29.6801 16.25 30.1701 17.57 30.1701 19.15C30.1701 20.37 29.8501 21.5 29.2101 22.54C28.5701 23.56 27.5901 24.38 26.2701 25C24.9701 25.62 23.3701 25.93 21.4701 25.93C19.9901 25.93 18.5301 25.74 17.0901 25.36C15.6701 24.96 14.4601 24.4 13.4601 23.68L15.3501 19.96C16.1501 20.56 17.0701 21.03 18.1101 21.37C19.1701 21.69 20.2501 21.85 21.3501 21.85C22.5701 21.85 23.5301 21.62 24.2301 21.16C24.9301 20.68 25.2801 20.01 25.2801 19.15C25.2801 17.43 23.9701 16.57 21.3501 16.57H19.1301V13.36L23.4501 8.47001H14.5101V4.57001H29.2101V7.72001L24.4701 13.12ZM39.321 12.46C42.281 12.46 44.461 13.05 45.861 14.23C47.281 15.41 47.991 16.99 47.991 18.97C47.991 20.25 47.671 21.42 47.031 22.48C46.391 23.52 45.411 24.36 44.091 25C42.791 25.62 41.181 25.93 39.261 25.93C37.781 25.93 36.321 25.74 34.881 25.36C33.461 24.96 32.251 24.4 31.251 23.68L33.171 19.96C33.971 20.56 34.891 21.03 35.931 21.37C36.971 21.69 38.041 21.85 39.141 21.85C40.361 21.85 41.321 21.61 42.021 21.13C42.721 20.65 43.071 19.98 43.071 19.12C43.071 18.22 42.701 17.54 41.961 17.08C41.241 16.62 39.981 16.39 38.181 16.39H32.811L33.891 4.57001H46.701V8.47001H37.941L37.611 12.46H39.321ZM67.4589 25.93C65.7189 25.93 64.1689 25.5 62.8089 24.64C61.4489 23.78 60.3789 22.54 59.5989 20.92C58.8389 19.28 58.4589 17.33 58.4589 15.07C58.4589 12.81 58.8389 10.87 59.5989 9.25001C60.3789 7.61001 61.4489 6.36001 62.8089 5.50001C64.1689 4.64001 65.7189 4.21001 67.4589 4.21001C69.1989 4.21001 70.7489 4.64001 72.1089 5.50001C73.4689 6.36001 74.5289 7.61001 75.2889 9.25001C76.0689 10.87 76.4589 12.81 76.4589 15.07C76.4589 17.33 76.0689 19.28 75.2889 20.92C74.5289 22.54 73.4689 23.78 72.1089 24.64C70.7489 25.5 69.1989 25.93 67.4589 25.93ZM67.4589 21.82C68.7389 21.82 69.7389 21.27 70.4589 20.17C71.1989 19.07 71.5689 17.37 71.5689 15.07C71.5689 12.77 71.1989 11.07 70.4589 9.97001C69.7389 8.87001 68.7389 8.32001 67.4589 8.32001C66.1989 8.32001 65.1989 8.87001 64.4589 9.97001C63.7389 11.07 63.3789 12.77 63.3789 15.07C63.3789 17.37 63.7389 19.07 64.4589 20.17C65.1989 21.27 66.1989 21.82 67.4589 21.82ZM87.8203 25.93C86.0803 25.93 84.5303 25.5 83.1703 24.64C81.8103 23.78 80.7403 22.54 79.9603 20.92C79.2003 19.28 78.8203 17.33 78.8203 15.07C78.8203 12.81 79.2003 10.87 79.9603 9.25001C80.7403 7.61001 81.8103 6.36001 83.1703 5.50001C84.5303 4.64001 86.0803 4.21001 87.8203 4.21001C89.5603 4.21001 91.1103 4.64001 92.4703 5.50001C93.8303 6.36001 94.8903 7.61001 95.6503 9.25001C96.4303 10.87 96.8203 12.81 96.8203 15.07C96.8203 17.33 96.4303 19.28 95.6503 20.92C94.8903 22.54 93.8303 23.78 92.4703 24.64C91.1103 25.5 89.5603 25.93 87.8203 25.93ZM87.8203 21.82C89.1003 21.82 90.1003 21.27 90.8203 20.17C91.5603 19.07 91.9303 17.37 91.9303 15.07C91.9303 12.77 91.5603 11.07 90.8203 9.97001C90.1003 8.87001 89.1003 8.32001 87.8203 8.32001C86.5603 8.32001 85.5603 8.87001 84.8203 9.97001C84.1003 11.07 83.7403 12.77 83.7403 15.07C83.7403 17.37 84.1003 19.07 84.8203 20.17C85.5603 21.27 86.5603 21.82 87.8203 21.82ZM108.182 25.93C106.442 25.93 104.892 25.5 103.532 24.64C102.172 23.78 101.102 22.54 100.322 20.92C99.5616 19.28 99.1816 17.33 99.1816 15.07C99.1816 12.81 99.5616 10.87 100.322 9.25001C101.102 7.61001 102.172 6.36001 103.532 5.50001C104.892 4.64001 106.442 4.21001 108.182 4.21001C109.922 4.21001 111.472 4.64001 112.832 5.50001C114.192 6.36001 115.252 7.61001 116.012 9.25001C116.792 10.87 117.182 12.81 117.182 15.07C117.182 17.33 116.792 19.28 116.012 20.92C115.252 22.54 114.192 23.78 112.832 24.64C111.472 25.5 109.922 25.93 108.182 25.93ZM108.182 21.82C109.462 21.82 110.462 21.27 111.182 20.17C111.922 19.07 112.292 17.37 112.292 15.07C112.292 12.77 111.922 11.07 111.182 9.97001C110.462 8.87001 109.462 8.32001 108.182 8.32001C106.922 8.32001 105.922 8.87001 105.182 9.97001C104.462 11.07 104.102 12.77 104.102 15.07C104.102 17.37 104.462 19.07 105.182 20.17C105.922 21.27 106.922 21.82 108.182 21.82Z" fill="url(#paint0_linear)"/>
</g>
<defs>
<filter id="filter0_dd" x="0.430668" y="0.952698" width="120.822" height="38.0066" filterUnits="userSpaceOnUse" color-interpolation-filters="sRGB">
<feFlood flood-opacity="0" result="BackgroundImageFix"/>
<feColorMatrix in="SourceAlpha" type="matrix" values="0 0 0 0 0 0 0 0 0 0 0 0 0 0 0 0 0 0 127 0"/>
<feOffset dx="-6.51465" dy="6.51465"/>
<feGaussianBlur stdDeviation="3.25732"/>
<feColorMatrix type="matrix" values="0 0 0 0 0 0 0 0 0 0 0 0 0 0 0 0 0 0 0.13 0"/>
<feBlend mode="normal" in2="BackgroundImageFix" result="effect1_dropShadow"/>
<feColorMatrix in="SourceAlpha" type="matrix" values="0 0 0 0 0 0 0 0 0 0 0 0 0 0 0 0 0 0 127 0"/>
<feOffset dy="0.814331"/>
<feGaussianBlur stdDeviation="2.03583"/>
<feColorMatrix type="matrix" values="0 0 0 0 0.443137 0 0 0 0 0.776471 0 0 0 0 0.0470588 0 0 0 0.5 0"/>
<feBlend mode="normal" in2="effect1_dropShadow" result="effect2_dropShadow"/>
<feBlend mode="normal" in="SourceGraphic" in2="effect2_dropShadow" result="shape"/>
</filter>
<linearGradient id="paint0_linear" x1="65.9315" y1="-3.42999" x2="65.9315" y2="33.2149" gradientUnits="userSpaceOnUse">
<stop stop-color="#1A9F29"/>
<stop offset="1" stop-color="#93D600"/>
</linearGradient>
</defs>
</svg>
