<svg width="96" height="39" viewBox="0 0 96 39" fill="none" xmlns="http://www.w3.org/2000/svg">
<g filter="url(#filter0_dd)">
<path d="M32.7359 21.1601H29.3159V25.5701H24.5759V21.1601H13.2659V17.8901L23.1659 4.57007H28.2659L19.0859 17.2001H24.7259V13.2701H29.3159V17.2001H32.7359V21.1601ZM44.2995 12.4001C45.6395 12.4001 46.8595 12.6701 47.9595 13.2101C49.0595 13.7501 49.9295 14.5201 50.5695 15.5201C51.2095 16.5001 51.5295 17.6401 51.5295 18.9401C51.5295 20.3401 51.1795 21.5701 50.4795 22.6301C49.7795 23.6901 48.8195 24.5101 47.5995 25.0901C46.3995 25.6501 45.0595 25.9301 43.5795 25.9301C40.6395 25.9301 38.3395 25.0301 36.6795 23.2301C35.0195 21.4301 34.1895 18.8601 34.1895 15.5201C34.1895 13.1401 34.6395 11.1001 35.5395 9.40007C36.4395 7.70007 37.6895 6.41007 39.2895 5.53007C40.9095 4.65007 42.7795 4.21007 44.8995 4.21007C46.0195 4.21007 47.0895 4.34007 48.1095 4.60007C49.1495 4.84007 50.0295 5.19007 50.7495 5.65007L48.9495 9.22007C47.9095 8.52007 46.5995 8.17007 45.0195 8.17007C43.2395 8.17007 41.8295 8.69007 40.7895 9.73007C39.7495 10.7701 39.1895 12.2801 39.1095 14.2601C40.3495 13.0201 42.0795 12.4001 44.2995 12.4001ZM43.3095 22.3001C44.3495 22.3001 45.1895 22.0201 45.8295 21.4601C46.4895 20.9001 46.8195 20.1401 46.8195 19.1801C46.8195 18.2201 46.4895 17.4601 45.8295 16.9001C45.1895 16.3201 44.3295 16.0301 43.2495 16.0301C42.1895 16.0301 41.3195 16.3301 40.6395 16.9301C39.9595 17.5101 39.6195 18.2601 39.6195 19.1801C39.6195 20.1001 39.9495 20.8501 40.6095 21.4301C41.2695 22.0101 42.1695 22.3001 43.3095 22.3001ZM62.2911 25.9301C60.5511 25.9301 59.0011 25.5001 57.6411 24.6401C56.2811 23.7801 55.2111 22.5401 54.4311 20.9201C53.6711 19.2801 53.2911 17.3301 53.2911 15.0701C53.2911 12.8101 53.6711 10.8701 54.4311 9.25007C55.2111 7.61007 56.2811 6.36007 57.6411 5.50007C59.0011 4.64007 60.5511 4.21007 62.2911 4.21007C64.0311 4.21007 65.5811 4.64007 66.9411 5.50007C68.3011 6.36007 69.3611 7.61007 70.1211 9.25007C70.9011 10.8701 71.2911 12.8101 71.2911 15.0701C71.2911 17.3301 70.9011 19.2801 70.1211 20.9201C69.3611 22.5401 68.3011 23.7801 66.9411 24.6401C65.5811 25.5001 64.0311 25.9301 62.2911 25.9301ZM62.2911 21.8201C63.5711 21.8201 64.5711 21.2701 65.2911 20.1701C66.0311 19.0701 66.4011 17.3701 66.4011 15.0701C66.4011 12.7701 66.0311 11.0701 65.2911 9.97007C64.5711 8.87007 63.5711 8.32007 62.2911 8.32007C61.0311 8.32007 60.0311 8.87007 59.2911 9.97007C58.5711 11.0701 58.2111 12.7701 58.2111 15.0701C58.2111 17.3701 58.5711 19.0701 59.2911 20.1701C60.0311 21.2701 61.0311 21.8201 62.2911 21.8201ZM82.6524 25.9301C80.9124 25.9301 79.3624 25.5001 78.0024 24.6401C76.6424 23.7801 75.5724 22.5401 74.7924 20.9201C74.0324 19.2801 73.6524 17.3301 73.6524 15.0701C73.6524 12.8101 74.0324 10.8701 74.7924 9.25007C75.5724 7.61007 76.6424 6.36007 78.0024 5.50007C79.3624 4.64007 80.9124 4.21007 82.6524 4.21007C84.3924 4.21007 85.9424 4.64007 87.3024 5.50007C88.6624 6.36007 89.7224 7.61007 90.4824 9.25007C91.2624 10.8701 91.6524 12.8101 91.6524 15.0701C91.6524 17.3301 91.2624 19.2801 90.4824 20.9201C89.7224 22.5401 88.6624 23.7801 87.3024 24.6401C85.9424 25.5001 84.3924 25.9301 82.6524 25.9301ZM82.6524 21.8201C83.9324 21.8201 84.9324 21.2701 85.6524 20.1701C86.3924 19.0701 86.7624 17.3701 86.7624 15.0701C86.7624 12.7701 86.3924 11.0701 85.6524 9.97007C84.9324 8.87007 83.9324 8.32007 82.6524 8.32007C81.3924 8.32007 80.3924 8.87007 79.6524 9.97007C78.9324 11.0701 78.5724 12.7701 78.5724 15.0701C78.5724 17.3701 78.9324 19.0701 79.6524 20.1701C80.3924 21.2701 81.3924 21.8201 82.6524 21.8201Z" fill="url(#paint0_linear)"/>
</g>
<defs>
<filter id="filter0_dd" x="0.23682" y="0.95276" width="95.4874" height="38.0066" filterUnits="userSpaceOnUse" color-interpolation-filters="sRGB">
<feFlood flood-opacity="0" result="BackgroundImageFix"/>
<feColorMatrix in="SourceAlpha" type="matrix" values="0 0 0 0 0 0 0 0 0 0 0 0 0 0 0 0 0 0 127 0"/>
<feOffset dx="-6.51465" dy="6.51465"/>
<feGaussianBlur stdDeviation="3.25732"/>
<feColorMatrix type="matrix" values="0 0 0 0 0 0 0 0 0 0 0 0 0 0 0 0 0 0 0.13 0"/>
<feBlend mode="normal" in2="BackgroundImageFix" result="effect1_dropShadow"/>
<feColorMatrix in="SourceAlpha" type="matrix" values="0 0 0 0 0 0 0 0 0 0 0 0 0 0 0 0 0 0 127 0"/>
<feOffset dy="0.814331"/>
<feGaussianBlur stdDeviation="2.03583"/>
<feColorMatrix type="matrix" values="0 0 0 0 0.443137 0 0 0 0 0.776471 0 0 0 0 0.0470588 0 0 0 0.5 0"/>
<feBlend mode="normal" in2="effect1_dropShadow" result="effect2_dropShadow"/>
<feBlend mode="normal" in="SourceGraphic" in2="effect2_dropShadow" result="shape"/>
</filter>
<linearGradient id="paint0_linear" x1="52.5898" y1="-3.42993" x2="52.5898" y2="33.215" gradientUnits="userSpaceOnUse">
<stop stop-color="#1A9F29"/>
<stop offset="1" stop-color="#93D600"/>
</linearGradient>
</defs>
</svg>
