<svg width="20" height="24" viewBox="0 0 20 24" fill="none" xmlns="http://www.w3.org/2000/svg">
<path d="M7.12533 1.0096V8.1971C7.12533 10.0496 5.62458 11.5513 3.77116 11.5513C1.91774 11.5513 0.416992 10.0496 0.416992 8.1971V2.4471C0.416992 1.12364 1.48937 0.0512695 2.81283 0.0512695C4.13628 0.0512695 5.20866 1.12364 5.20866 2.4471V6.7596C5.20866 7.5531 4.56466 8.1971 3.77116 8.1971C2.97766 8.1971 2.33366 7.5531 2.33366 6.7596V2.92627H3.29199V6.7596C3.29199 7.02314 3.50762 7.23877 3.77116 7.23877C4.0347 7.23877 4.25033 7.02314 4.25033 6.7596V2.4471C4.25033 1.65456 3.60537 1.0096 2.81283 1.0096C2.02028 1.0096 1.37533 1.65456 1.37533 2.4471V8.1971C1.37533 9.51769 2.44962 10.5929 3.77116 10.5929C5.0927 10.5929 6.16699 9.51769 6.16699 8.1971V1.0096H7.12533ZM9.04199 1.0096V2.92627C12.1872 2.92627 12.6568 5.74952 11.917 8.67627C11.917 8.67627 17.667 7.09502 17.667 11.0309V21.1346H3.29199V13.444C2.60678 13.3817 1.95991 13.1862 1.37533 12.8862V23.0513H19.5837V10.223C19.5837 8.45681 14.2333 1.0096 9.04199 1.0096Z" fill="#9C9C9C"/>
</svg>
