<svg width="23" height="25" viewBox="0 0 23 25" fill="none" xmlns="http://www.w3.org/2000/svg">
<path d="M11.7085 21.5059C11.5097 21.7297 11.1601 21.7297 10.9612 21.5059L4.0737 13.7585C3.78705 13.436 4.01594 12.9263 4.44738 12.9263H8.83462C9.11076 12.9263 9.33462 12.7024 9.33462 12.4263V1.42627C9.33462 1.15013 9.55847 0.92627 9.83462 0.92627H12.8351C13.1113 0.92627 13.3351 1.15013 13.3351 1.42627V12.4263C13.3351 12.7024 13.559 12.9263 13.8351 12.9263H18.2223C18.6538 12.9263 18.8827 13.436 18.596 13.7585L11.7085 21.5059ZM20.836 20.9263C20.5598 20.9263 20.336 21.1501 20.336 21.4263V22.4263C20.336 22.7024 20.1121 22.9263 19.836 22.9263H2.83374C2.5576 22.9263 2.33374 22.7024 2.33374 22.4263V21.4263C2.33374 21.1501 2.10989 20.9263 1.83374 20.9263H0.833496C0.557354 20.9263 0.333496 21.1501 0.333496 21.4263V24.4263C0.333496 24.7024 0.557354 24.9263 0.833496 24.9263H21.8362C22.1124 24.9263 22.3362 24.7024 22.3362 24.4263V21.4263C22.3362 21.1501 22.1124 20.9263 21.8362 20.9263H20.836Z" fill="#3A3A3A"/>
</svg>
