<svg width="22" height="19" viewBox="0 0 22 19" fill="none" xmlns="http://www.w3.org/2000/svg">
<path d="M15.7545 1.15792C15.3914 1.15792 15.097 1.45232 15.097 1.81548C15.097 2.17864 15.3914 2.47304 15.7545 2.47304V1.15792ZM17.4223 8.39766C17.4223 8.76082 17.7167 9.05522 18.0799 9.05522C18.443 9.05522 18.7374 8.76082 18.7374 8.39766H17.4223ZM9.24282 16.1093C9.60598 16.1093 9.90038 15.8149 9.90038 15.4517C9.90038 15.0886 9.60598 14.7942 9.24282 14.7942V16.1093ZM3.19653 2.47326C3.55969 2.47326 3.85409 2.17886 3.85409 1.8157C3.85409 1.45254 3.55969 1.15814 3.19653 1.15814V2.47326ZM15.0168 0.873047C15.0168 0.509886 14.7224 0.215486 14.3592 0.215486C13.996 0.215486 13.7016 0.509886 13.7016 0.873047H15.0168ZM13.7016 2.75374C13.7016 3.1169 13.996 3.4113 14.3592 3.4113C14.7224 3.4113 15.0168 3.1169 15.0168 2.75374H13.7016ZM5.98721 1.15807C5.62405 1.15807 5.32965 1.45247 5.32965 1.81563C5.32965 2.17879 5.62405 2.47319 5.98721 2.47319V1.15807ZM12.964 2.47319C13.3271 2.47319 13.6215 2.17879 13.6215 1.81563C13.6215 1.45247 13.3271 1.15807 12.964 1.15807V2.47319ZM5.25029 0.873047C5.25029 0.509886 4.95589 0.215486 4.59273 0.215486C4.22957 0.215486 3.93517 0.509886 3.93517 0.873047H5.25029ZM3.93517 2.75374C3.93517 3.1169 4.22957 3.4113 4.59273 3.4113C4.95589 3.4113 5.25029 3.1169 5.25029 2.75374H3.93517ZM20.8711 11.2661L21.3384 11.7288C21.5919 11.4726 21.5921 11.0601 21.3387 10.8038L20.8711 11.2661ZM19.2554 9.63209L19.723 9.16976C19.5994 9.04483 19.4311 8.97453 19.2554 8.97453C19.0797 8.97453 18.9113 9.04483 18.7878 9.16976L19.2554 9.63209ZM14.4082 14.5343L13.9406 14.9965C14.0641 15.1215 14.2325 15.1918 14.4082 15.1918C14.5839 15.1918 14.7522 15.1215 14.8758 14.9966L14.4082 14.5343ZM12.2545 12.3555L12.7221 11.8932C12.5986 11.7683 12.4302 11.698 12.2545 11.698C12.0788 11.6979 11.9104 11.7682 11.7869 11.8932L12.2545 12.3555ZM10.6387 13.9896L10.1712 13.5272C9.91768 13.7836 9.91789 14.1963 10.1716 14.4524L10.6387 13.9896ZM14.4082 17.794L13.9411 18.2568C14.0646 18.3815 14.2328 18.4516 14.4083 18.4516C14.5838 18.4516 14.752 18.3814 14.8755 18.2567L14.4082 17.794ZM15.7545 2.47304H17.6146V1.15792H15.7545V2.47304ZM17.6146 2.47304C17.5001 2.47304 17.4223 2.38114 17.4223 2.28741H18.7374C18.7374 1.67115 18.2427 1.15792 17.6146 1.15792V2.47304ZM17.4223 2.28741V8.39766H18.7374V2.28741H17.4223ZM9.24282 14.7942H1.33645V16.1093H9.24282V14.7942ZM1.33645 14.7942C1.45093 14.7942 1.52878 14.8861 1.52878 14.9798H0.213655C0.213655 15.5961 0.708384 16.1093 1.33645 16.1093V14.7942ZM1.52878 14.9798V2.28762H0.213655V14.9798H1.52878ZM1.52878 2.28762C1.52878 2.38135 1.45093 2.47326 1.33645 2.47326V1.15814C0.708383 1.15814 0.213655 1.67136 0.213655 2.28762H1.52878ZM1.33645 2.47326H3.19653V1.15814H1.33645V2.47326ZM0.871094 6.23576H18.079V4.92064H0.871094V6.23576ZM13.7016 0.873047V2.75374H15.0168V0.873047H13.7016ZM5.98721 2.47319H12.964V1.15807H5.98721V2.47319ZM3.93517 0.873047V2.75374H5.25029V0.873047H3.93517ZM5.98634 8.58843H7.38163V7.2733H5.98634V8.58843ZM8.31209 8.58843H9.70738V7.2733H8.31209V8.58843ZM10.637 8.58843H12.0323V7.2733H10.637V8.58843ZM12.9628 8.58843H14.3581V7.2733H12.9628V8.58843ZM3.66219 10.9332H5.05757V9.61803H3.66219V10.9332ZM5.98807 10.9332H7.38343V9.61803H5.98807V10.9332ZM8.31311 10.9332H9.7085V9.61803H8.31311V10.9332ZM10.639 10.9332H12.0336V9.61803H10.639V10.9332ZM12.9642 10.9332H14.3595V9.61803H12.9642V10.9332ZM3.66156 13.2859H5.05702V11.9708H3.66156V13.2859ZM5.98758 13.2859H7.38302V11.9708H5.98758V13.2859ZM8.31271 13.2859H9.70818V11.9708H8.31271V13.2859ZM21.3387 10.8038L19.723 9.16976L18.7878 10.0944L20.4035 11.7285L21.3387 10.8038ZM18.7878 9.16976L13.9406 14.0719L14.8758 14.9966L19.723 10.0944L18.7878 9.16976ZM14.8758 14.072L12.7221 11.8932L11.7868 12.8178L13.9406 14.9965L14.8758 14.072ZM11.7869 11.8932L10.1712 13.5272L11.1063 14.4519L12.722 12.8179L11.7869 11.8932ZM10.1716 14.4524L13.9411 18.2568L14.8753 17.3312L11.1059 13.5268L10.1716 14.4524ZM14.8755 18.2567L21.3384 11.7288L20.4038 10.8035L13.9409 17.3314L14.8755 18.2567Z" fill="#108534"/>
</svg>
