<svg width="25" height="25" viewBox="0 0 25 25" fill="none" xmlns="http://www.w3.org/2000/svg">
<path d="M12.8828 19.315C12.3346 19.315 11.8903 18.8705 11.8903 18.3225C11.8903 17.7743 12.3346 17.33 12.8828 17.33C13.4309 17.33 13.8753 17.7743 13.8753 18.3225C13.8753 18.8705 13.4309 19.315 12.8828 19.315ZM11.9805 6.50307C11.9805 6.00469 12.3845 5.6007 12.8828 5.6007C13.3811 5.6007 13.7851 6.00469 13.7851 6.50307V14.8938C13.7851 15.3922 13.3811 15.7962 12.8828 15.7962C12.3845 15.7962 11.9805 15.3922 11.9805 14.8938V6.50307ZM21.3679 4.07788C20.2663 2.97609 18.983 2.11098 17.554 1.5065C16.074 0.880558 14.5024 0.563148 12.8828 0.563148C11.2632 0.563148 9.69156 0.880558 8.21158 1.5065C6.78251 2.11098 5.49929 2.97609 4.39753 4.07788C3.29576 5.1795 2.43063 6.4628 1.8262 7.89193C1.20022 9.37181 0.882812 10.9436 0.882812 12.5632C0.882812 14.1826 1.20022 15.7543 1.8262 17.2342C2.43063 18.6633 3.29576 19.9466 4.39753 21.0483C5.49929 22.1501 6.78251 23.0152 8.21158 23.6196C9.69156 24.2457 11.2632 24.563 12.8828 24.563C14.5024 24.563 16.074 24.2457 17.554 23.6196C18.983 23.0152 20.2663 22.1501 21.3679 21.0483C22.4699 19.9466 23.335 18.6633 23.9395 17.2342C24.5652 15.7543 24.8828 14.1826 24.8828 12.5632C24.8828 10.9436 24.5652 9.37181 23.9395 7.89193C23.335 6.4628 22.4699 5.1795 21.3679 4.07788Z" fill="#1A9F29"/>
</svg>
