<svg width="30" height="30" viewBox="0 0 30 30" fill="none" xmlns="http://www.w3.org/2000/svg">
<path d="M21.0893 9.27829V10.8192C21.0893 11.1799 20.7966 11.4737 20.436 11.4737H18.895C18.532 11.4737 18.2418 11.1799 18.2418 10.8192V9.27829C18.2418 8.91765 18.532 8.625 18.895 8.625H20.436C20.7966 8.625 21.0893 8.91765 21.0893 9.27829ZM14.7143 18.2676C16.5187 18.2676 17.9843 16.8044 17.9843 14.9988C17.9843 13.1931 16.5187 11.7324 14.7143 11.7324C12.9086 11.7324 11.4466 13.1944 11.4466 15C11.4466 16.8056 12.9086 18.2676 14.7143 18.2676ZM19.8883 14.2714C19.9223 14.5094 19.9442 14.7523 19.9442 14.9988C19.9442 17.8888 17.603 20.2299 14.7143 20.2299C11.8255 20.2299 9.48432 17.8888 9.48432 15C9.48432 14.7523 9.50618 14.5106 9.54018 14.2726C9.57296 14.0371 9.62032 13.8076 9.68347 13.5841H8.33925V20.7229C8.33925 21.0836 8.63189 21.3762 8.99254 21.3762H20.436C20.7966 21.3762 21.0893 21.0836 21.0893 20.7229V13.5841H19.745C19.8057 13.8076 19.8543 14.0371 19.8883 14.2714ZM29.2857 15C29.2857 23.0471 22.7613 29.5714 14.7143 29.5714C6.66718 29.5714 0.142822 23.0471 0.142822 15C0.142822 6.95293 6.66718 0.428574 14.7143 0.428574C22.7613 0.428574 29.2857 6.95293 29.2857 15ZM23.2143 8.46107C23.2143 7.37793 22.3363 6.5 21.2532 6.5H8.17532C7.09218 6.5 6.21425 7.37793 6.21425 8.46107V21.5377C6.21425 22.6221 7.09218 23.5 8.17532 23.5H21.2532C22.3363 23.5 23.2143 22.6221 23.2143 21.5377V8.46107Z" fill="#1A9F29"/>
</svg>
