<svg width="81" height="105" viewBox="0 0 81 105" fill="none" xmlns="http://www.w3.org/2000/svg">
<path d="M7.61741 104.853H5.98732V103H1.88365V104.847H0.20182L0.0724482 101.603H0.60546C0.884903 101.416 1.10915 101.097 1.27819 100.645C1.45069 100.19 1.57316 99.538 1.64561 98.6893L1.87848 95.4654H7.00677V101.603H7.80888L7.61741 104.853ZM2.65988 101.603H5.19557V96.8678H3.59136L3.45164 98.7514C3.34814 99.9727 3.08422 100.923 2.65988 101.603ZM14.6915 99.3879C14.6915 100.123 14.5552 100.773 14.2826 101.339C14.0101 101.905 13.622 102.341 13.1183 102.648C12.6181 102.952 12.0471 103.103 11.4054 103.103C10.7637 103.103 10.1945 102.957 9.6977 102.664C9.20092 102.367 8.8128 101.944 8.53336 101.396C8.25737 100.847 8.11247 100.218 8.09867 99.507V99.0826C8.09867 98.3443 8.23322 97.694 8.50231 97.1317C8.77485 96.5659 9.16297 96.1295 9.66666 95.8225C10.1738 95.5154 10.7499 95.3619 11.3951 95.3619C12.0333 95.3619 12.6025 95.5137 13.1028 95.8173C13.603 96.1209 13.9911 96.5538 14.2671 97.1162C14.5466 97.6751 14.688 98.3167 14.6915 99.0412V99.3879ZM12.844 99.0723C12.844 98.3236 12.7181 97.7561 12.4663 97.3697C12.2179 96.9799 11.8608 96.785 11.3951 96.785C10.4843 96.785 10.003 97.4681 9.95127 98.8342L9.9461 99.3879C9.9461 100.126 10.0686 100.694 10.3135 101.09C10.5585 101.487 10.9224 101.686 11.4054 101.686C11.8642 101.686 12.2179 101.491 12.4663 101.101C12.7147 100.711 12.8406 100.15 12.844 99.419V99.0723ZM18.0137 95.4654L19.6956 100.708L21.3722 95.4654H23.763V103H21.9414V101.241L22.1174 97.6388L20.2958 103H19.0953L17.2685 97.6337L17.4445 101.241V103H15.6281V95.4654H18.0137ZM33.942 99.3879C33.942 100.123 33.8057 100.773 33.5331 101.339C33.2606 101.905 32.8725 102.341 32.3688 102.648C31.8686 102.952 31.2976 103.103 30.6559 103.103C30.0142 103.103 29.445 102.957 28.9482 102.664C28.4514 102.367 28.0633 101.944 27.7839 101.396C27.5079 100.847 27.363 100.218 27.3492 99.507V99.0826C27.3492 98.3443 27.4837 97.694 27.7528 97.1317C28.0254 96.5659 28.4135 96.1295 28.9172 95.8225C29.4243 95.5154 30.0004 95.3619 30.6456 95.3619C31.2838 95.3619 31.853 95.5137 32.3533 95.8173C32.8535 96.1209 33.2416 96.5538 33.5176 97.1162C33.7971 97.6751 33.9385 98.3167 33.942 99.0412V99.3879ZM32.0945 99.0723C32.0945 98.3236 31.9686 97.7561 31.7168 97.3697C31.4684 96.9799 31.1113 96.785 30.6456 96.785C29.7348 96.785 29.2535 97.4681 29.2018 98.8342L29.1966 99.3879C29.1966 100.126 29.3191 100.694 29.564 101.09C29.809 101.487 30.1729 101.686 30.6559 101.686C31.1148 101.686 31.4684 101.491 31.7168 101.101C31.9652 100.711 32.0911 100.15 32.0945 99.419V99.0723ZM40.3485 96.8678H38.087V103H36.2707V96.8678H34.0506V95.4654H40.3485V96.8678ZM49.7771 103H47.9607V96.8678H45.2542V103H43.4378V95.4654H49.7771V103ZM52.7267 100.444V103H50.9104V95.4654H53.917C54.4931 95.4654 55.002 95.5723 55.4435 95.7862C55.8886 95.9967 56.2319 96.2985 56.4733 96.6918C56.7183 97.0817 56.8408 97.525 56.8408 98.0218C56.8408 98.7566 56.5768 99.3448 56.049 99.7864C55.5246 100.225 54.8036 100.444 53.8859 100.444H52.7267ZM52.7267 99.0412H53.917C54.2689 99.0412 54.5362 98.9533 54.7191 98.7773C54.9054 98.6014 54.9985 98.353 54.9985 98.0321C54.9985 97.6802 54.9036 97.3991 54.7139 97.1886C54.5241 96.9782 54.2654 96.8712 53.9377 96.8678H52.7267V99.0412ZM64.1942 99.3879C64.1942 100.123 64.058 100.773 63.7854 101.339C63.5129 101.905 63.1248 102.341 62.6211 102.648C62.1209 102.952 61.5499 103.103 60.9082 103.103C60.2665 103.103 59.6973 102.957 59.2005 102.664C58.7037 102.367 58.3156 101.944 58.0362 101.396C57.7602 100.847 57.6153 100.218 57.6015 99.507V99.0826C57.6015 98.3443 57.736 97.694 58.0051 97.1317C58.2776 96.5659 58.6658 96.1295 59.1695 95.8225C59.6766 95.5154 60.2527 95.3619 60.8979 95.3619C61.5361 95.3619 62.1053 95.5137 62.6056 95.8173C63.1058 96.1209 63.4939 96.5538 63.7699 97.1162C64.0494 97.6751 64.1908 98.3167 64.1942 99.0412V99.3879ZM62.3468 99.0723C62.3468 98.3236 62.2209 97.7561 61.9691 97.3697C61.7207 96.9799 61.3636 96.785 60.8979 96.785C59.9871 96.785 59.5058 97.4681 59.4541 98.8342L59.4489 99.3879C59.4489 100.126 59.5714 100.694 59.8163 101.09C60.0613 101.487 60.4252 101.686 60.9082 101.686C61.367 101.686 61.7207 101.491 61.9691 101.101C62.2174 100.711 62.3434 100.15 62.3468 99.419V99.0723ZM69.8918 96.1071C70.8716 96.1071 71.6512 96.4003 72.2308 96.9868C72.8139 97.5698 73.1054 98.334 73.1054 99.2793C73.1054 99.7416 73.0277 100.162 72.8725 100.542C72.7207 100.918 72.5068 101.239 72.2308 101.504C71.6478 102.074 70.8681 102.358 69.8918 102.358V103.31H68.1427V102.358C67.1525 102.358 66.366 102.074 65.7829 101.504C65.1999 100.935 64.9084 100.197 64.9084 99.2896C64.9084 98.8101 64.986 98.3754 65.1412 97.9856C65.2965 97.5957 65.5138 97.2628 65.7933 96.9868C66.3798 96.4003 67.1629 96.1071 68.1427 96.1071V95.1549H69.8918V96.1071ZM68.0754 97.5664C67.6235 97.5664 67.2664 97.7182 67.0042 98.0218C66.7455 98.3254 66.6161 98.748 66.6161 99.2896C66.6161 99.7864 66.7472 100.18 67.0094 100.469C67.2716 100.756 67.6493 100.899 68.1427 100.899V97.5664H68.0754ZM69.8918 97.5664V100.899H69.9694C70.4006 100.899 70.7456 100.758 71.0044 100.475C71.2666 100.188 71.3977 99.7899 71.3977 99.2793C71.3977 98.748 71.27 98.3305 71.0147 98.027C70.7629 97.7199 70.3886 97.5664 69.8918 97.5664ZM78.4303 95.4654H80.2467V103H78.4303V98.2495L75.7239 103H73.9075V95.4654H75.7239V100.221L78.4303 95.4654Z" fill="#868686"/>
<path d="M81 21.9294L40.3764 0V5.16089L81 27.0903V21.9294Z" fill="#1A9F29"/>
<path fill-rule="evenodd" clip-rule="evenodd" d="M0 89.461H7.06528V29.0711L0 33.012V89.461Z" fill="#1A9F29"/>
<path fill-rule="evenodd" clip-rule="evenodd" d="M80.9613 89.461H40.4807V10.4727L80.9613 33.012V89.461Z" fill="#1A9F29"/>
<path fill-rule="evenodd" clip-rule="evenodd" d="M6.84399 89.4628H40.4807V10.4746L6.85167 29.199L6.84399 89.4628ZM36.1254 53.3633H11.1466V31.2599L36.1254 17.6592V53.3633ZM11.1466 57.8287H36.1777V85.1703H11.1466V57.8287Z" fill="#08600A"/>
</svg>
