<svg width="81" height="81" viewBox="0 0 81 81" fill="none" xmlns="http://www.w3.org/2000/svg">
<path d="M41.4643 7.10634C49.7343 12.9697 49.711 12.893 59.7743 12.833C60.5877 12.833 61.3043 13.2863 61.521 13.9363C64.5777 23.233 64.661 23.3963 72.981 29.1163C73.5677 29.523 73.7377 30.1397 73.561 30.6263C70.3243 39.963 70.2977 40.073 73.561 49.5463C73.7377 50.0297 73.571 50.6463 72.9777 51.0563C64.7477 56.7197 64.6277 56.823 61.521 66.233C61.3043 66.883 60.5877 67.3363 59.7677 67.3363C49.7844 67.273 49.7677 67.173 41.4677 73.0597C40.7843 73.543 39.7977 73.5397 39.121 73.0597C30.871 67.223 30.911 67.263 20.811 67.3363C19.9977 67.3363 19.281 66.883 19.0677 66.2397C16.3143 57.9097 16.0443 56.8397 9.31768 52.233L7.60435 51.053C7.01768 50.6463 6.84768 50.0297 7.02435 49.543C9.91102 41.1963 10.3543 40.193 7.66768 32.4963C7.18102 31.083 6.42102 29.933 7.60435 29.1097C15.7977 23.473 15.9577 23.3697 19.061 13.933C19.2777 13.283 19.9943 12.8297 20.8143 12.8297C30.8443 12.8997 30.801 12.9897 39.1177 7.10634C39.8043 6.62301 40.7943 6.63634 41.4643 7.10634ZM40.291 0.0830078C38.5343 0.0830078 36.7743 0.606341 35.2843 1.65301C29.4277 5.77301 29.3843 6.19301 24.7777 6.19301L20.8343 6.16634H20.8077C17.1277 6.16634 13.8643 8.44967 12.7377 11.8197C10.031 19.9297 10.961 18.6697 3.80435 23.633C1.55435 25.193 0.291016 27.673 0.291016 30.2397C0.291016 31.0863 0.427682 31.9463 0.714349 32.783C3.48102 40.8763 3.47102 39.3263 0.714349 47.383C0.427682 48.2197 0.291016 49.0763 0.291016 49.9263C0.291016 52.493 1.55435 54.973 3.80768 56.533C10.9643 61.4963 10.0377 60.2463 12.741 68.3463C13.8677 71.7163 17.1277 73.9997 20.811 73.9997H20.8377C29.6777 73.973 28.1343 73.483 35.2877 78.513C36.7743 79.5563 38.5343 80.083 40.291 80.083C42.0477 80.083 43.8077 79.5597 45.2977 78.513C51.1643 74.3863 51.171 73.9763 55.901 73.9763L59.7477 73.9997H59.7743C63.4543 73.9997 66.7177 71.7163 67.8444 68.3463C70.551 60.253 69.6043 61.503 76.7777 56.533C79.0277 54.9697 80.291 52.493 80.291 49.9263C80.291 49.0797 80.1543 48.2197 79.8677 47.383C77.0977 39.2897 77.111 40.8397 79.8677 32.783C80.1543 31.9463 80.291 31.0863 80.291 30.2397C80.291 27.673 79.0277 25.193 76.7743 23.633C69.601 18.6597 70.5477 19.9097 67.841 11.8197C66.7143 8.44967 63.4543 6.16634 59.771 6.16634H59.7444L55.891 6.18967C51.171 6.18967 51.1577 5.77634 45.2943 1.65301C43.8077 0.606341 42.0477 0.0830078 40.291 0.0830078V0.0830078ZM52.6177 51.263C51.2677 51.1597 51.3943 49.9097 52.671 49.673C54.7843 49.283 55.7144 48.1497 55.7144 47.103C55.7144 46.2197 55.0543 45.3997 53.8843 45.133C52.491 44.8163 52.7777 43.8697 53.9377 43.7797C55.8243 43.6297 56.751 42.5063 56.751 41.4297C56.751 40.4897 56.0443 39.583 54.651 39.3963C53.221 39.2063 53.6877 38.173 54.7043 37.8597C55.5743 37.593 56.961 37.0263 56.961 35.343C56.961 34.223 56.1277 32.7397 53.1743 32.8597C51.1277 32.943 47.0644 32.5297 44.8777 31.3863C46.3843 25.2897 46.021 16.7497 42.061 16.7497C39.4044 16.7497 38.901 19.7597 38.101 22.5297C35.2377 32.4763 29.511 34.2997 23.6243 35.203V51.7497C34.771 51.7497 37.791 56.7497 46.131 56.7497C51.4643 56.7497 54.2177 53.8597 54.2177 52.3063C54.2177 51.7497 53.7643 51.3497 52.6177 51.263Z" fill="#1A9F29"/>
</svg>
