<svg width="24" height="24" viewBox="0 0 24 24" fill="none" xmlns="http://www.w3.org/2000/svg">
<path d="M22.6667 16.6667C21 16.6667 19.4 16.4 17.9067 15.9067C17.44 15.76 16.92 15.8667 16.5467 16.2267L13.6133 19.16C9.84 17.24 6.74667 14.16 4.82667 10.3733L7.76 7.42667C8.13333 7.08 8.24 6.56 8.09333 6.09333C7.6 4.6 7.33333 3 7.33333 1.33333C7.33333 0.6 6.73333 0 6 0H1.33333C0.6 0 0 0.6 0 1.33333C0 13.8533 10.1467 24 22.6667 24C23.4 24 24 23.4 24 22.6667V18C24 17.2667 23.4 16.6667 22.6667 16.6667ZM21.3333 12H24C24 5.37333 18.6267 0 12 0V2.66667C17.16 2.66667 21.3333 6.84 21.3333 12ZM16 12H18.6667C18.6667 8.32 15.68 5.33333 12 5.33333V8C14.2133 8 16 9.78667 16 12Z" fill="#1A9F29"/>
</svg>
