<svg width="56" height="56" viewBox="0 0 56 56" fill="none" xmlns="http://www.w3.org/2000/svg">
<circle cx="28" cy="28" r="20.8425" stroke="#FFC900" stroke-width="0.315"/>
<g filter="url(#filter0_d)">
<circle cx="28" cy="28" r="16.5" fill="#FFC900"/>
</g>
<g filter="url(#filter1_dd)">
<path d="M35.1111 31.1111C34 31.1111 32.9333 30.9333 31.9378 30.6044C31.6267 30.5067 31.28 30.5778 31.0311 30.8178L29.0756 32.7733C26.56 31.4933 24.4978 29.44 23.2178 26.9156L25.1733 24.9511C25.4222 24.72 25.4933 24.3733 25.3956 24.0622C25.0667 23.0667 24.8889 22 24.8889 20.8889C24.8889 20.4 24.4889 20 24 20H20.8889C20.4 20 20 20.4 20 20.8889C20 29.2356 26.7644 36 35.1111 36C35.6 36 36 35.6 36 35.1111V32C36 31.5111 35.6 31.1111 35.1111 31.1111ZM34.2222 28H36C36 23.5822 32.4178 20 28 20V21.7778C31.44 21.7778 34.2222 24.56 34.2222 28ZM30.6667 28H32.4444C32.4444 25.5467 30.4533 23.5556 28 23.5556V25.3333C29.4756 25.3333 30.6667 26.5244 30.6667 28Z" fill="white"/>
</g>
<defs>
<filter id="filter0_d" x="0.5" y="0.5" width="55" height="55" filterUnits="userSpaceOnUse" color-interpolation-filters="sRGB">
<feFlood flood-opacity="0" result="BackgroundImageFix"/>
<feColorMatrix in="SourceAlpha" type="matrix" values="0 0 0 0 0 0 0 0 0 0 0 0 0 0 0 0 0 0 127 0"/>
<feOffset/>
<feGaussianBlur stdDeviation="5.5"/>
<feColorMatrix type="matrix" values="0 0 0 0 1 0 0 0 0 0.789743 0 0 0 0 0 0 0 0 1 0"/>
<feBlend mode="normal" in2="BackgroundImageFix" result="effect1_dropShadow"/>
<feBlend mode="normal" in="SourceGraphic" in2="effect1_dropShadow" result="shape"/>
</filter>
<filter id="filter1_dd" x="15" y="16" width="25" height="27" filterUnits="userSpaceOnUse" color-interpolation-filters="sRGB">
<feFlood flood-opacity="0" result="BackgroundImageFix"/>
<feColorMatrix in="SourceAlpha" type="matrix" values="0 0 0 0 0 0 0 0 0 0 0 0 0 0 0 0 0 0 127 0"/>
<feOffset dx="-1" dy="3"/>
<feGaussianBlur stdDeviation="2"/>
<feColorMatrix type="matrix" values="0 0 0 0 0 0 0 0 0 0 0 0 0 0 0 0 0 0 0.15 0"/>
<feBlend mode="normal" in2="BackgroundImageFix" result="effect1_dropShadow"/>
<feColorMatrix in="SourceAlpha" type="matrix" values="0 0 0 0 0 0 0 0 0 0 0 0 0 0 0 0 0 0 127 0"/>
<feOffset/>
<feGaussianBlur stdDeviation="2"/>
<feColorMatrix type="matrix" values="0 0 0 0 1 0 0 0 0 1 0 0 0 0 1 0 0 0 1 0"/>
<feBlend mode="normal" in2="effect1_dropShadow" result="effect2_dropShadow"/>
<feBlend mode="normal" in="SourceGraphic" in2="effect2_dropShadow" result="shape"/>
</filter>
</defs>
</svg>
