<svg width="22" height="32" viewBox="0 0 22 32" fill="none" xmlns="http://www.w3.org/2000/svg">
<path d="M10.6667 2.66667C14.928 2.66667 18.6667 6.15733 18.6667 10.136C18.6667 14.26 15.3427 19.6453 10.6667 27.0173C5.99067 19.6453 2.66667 14.26 2.66667 10.136C2.66667 6.15733 6.40533 2.66667 10.6667 2.66667ZM10.6667 0C5.06933 0 0 4.53733 0 10.136C0 15.7333 4.62533 22.416 10.6667 32C16.708 22.416 21.3333 15.7333 21.3333 10.136C21.3333 4.53733 16.2653 0 10.6667 0V0ZM10.6667 14.6667C8.45733 14.6667 6.66667 12.876 6.66667 10.6667C6.66667 8.45733 8.45733 6.66667 10.6667 6.66667C12.876 6.66667 14.6667 8.45733 14.6667 10.6667C14.6667 12.876 12.876 14.6667 10.6667 14.6667Z" fill="#1A9F29"/>
</svg>
