<svg width="29" height="21" viewBox="0 0 29 21" fill="none" xmlns="http://www.w3.org/2000/svg">
<path d="M8.02281 0.537598C8.96137 0.537598 9.80178 0.912169 9.80178 2.12548C9.80178 5.11779 7.46819 6.79911 6.34191 10.724C8.96136 11.0047 10.9238 13.154 10.9238 15.8656C10.9238 18.5768 8.67977 20.8196 5.87687 20.8196C3.16784 20.8196 0.923828 18.5768 0.923828 15.8656C0.923828 9.60371 5.50575 0.537598 8.02281 0.537598Z" fill="#A9A9A9"/>
<path d="M26.0228 0.537598C26.9614 0.537598 27.8018 0.912169 27.8018 2.12548C27.8018 5.11779 25.4682 6.79911 24.3419 10.724C26.9614 11.0047 28.9238 13.154 28.9238 15.8656C28.9238 18.5768 26.6798 20.8196 23.8769 20.8196C21.1678 20.8196 18.9238 18.5768 18.9238 15.8656C18.9238 9.60371 23.5057 0.537598 26.0228 0.537598Z" fill="#A9A9A9"/>
</svg>
