<svg width="28" height="29" viewBox="0 0 28 29" fill="none" xmlns="http://www.w3.org/2000/svg">
<g filter="url(#filter0_d)">
<path fill-rule="evenodd" clip-rule="evenodd" d="M17.853 18.6216C16.17 20.1442 13.942 21.0706 11.5 21.0706C6.257 21.0706 2 16.7978 2 11.5353C2 6.27283 6.257 2 11.5 2C16.743 2 21 6.27283 21 11.5353C21 13.9864 20.077 16.2227 18.56 17.9119L26 25.3796L25.293 26.0892L17.853 18.6216ZM11.5 3.00372C16.191 3.00372 20 6.82688 20 11.5353C20 16.2438 16.191 20.0669 11.5 20.0669C6.809 20.0669 3 16.2438 3 11.5353C3 6.82688 6.809 3.00372 11.5 3.00372Z" fill="#FFC900"/>
</g>
<defs>
<filter id="filter0_d" x="0" y="0" width="28" height="28.0892" filterUnits="userSpaceOnUse" color-interpolation-filters="sRGB">
<feFlood flood-opacity="0" result="BackgroundImageFix"/>
<feColorMatrix in="SourceAlpha" type="matrix" values="0 0 0 0 0 0 0 0 0 0 0 0 0 0 0 0 0 0 127 0"/>
<feOffset/>
<feGaussianBlur stdDeviation="1"/>
<feColorMatrix type="matrix" values="0 0 0 0 1 0 0 0 0 0.788235 0 0 0 0 0 0 0 0 1 0"/>
<feBlend mode="normal" in2="BackgroundImageFix" result="effect1_dropShadow"/>
<feBlend mode="normal" in="SourceGraphic" in2="effect1_dropShadow" result="shape"/>
</filter>
</defs>
</svg>
