<svg width="44" height="36" viewBox="0 0 44 36" fill="none" xmlns="http://www.w3.org/2000/svg">
<g opacity="0.8" filter="url(#filter0_i_1:2443)">
<rect width="44" height="36" rx="8" fill="white"/>
</g>
<g filter="url(#filter1_d_1:2443)">
<path fill-rule="evenodd" clip-rule="evenodd" d="M25.853 22.6216C24.17 24.1442 21.942 25.0706 19.5 25.0706C14.257 25.0706 10 20.7978 10 15.5353C10 10.2728 14.257 6 19.5 6C24.743 6 29 10.2728 29 15.5353C29 17.9864 28.077 20.2227 26.56 21.9119L34 29.3796L33.293 30.0892L25.853 22.6216V22.6216ZM19.5 7.00372C24.191 7.00372 28 10.8269 28 15.5353C28 20.2438 24.191 24.0669 19.5 24.0669C14.809 24.0669 11 20.2438 11 15.5353C11 10.8269 14.809 7.00372 19.5 7.00372V7.00372Z" fill="#FFC900"/>
</g>
<defs>
<filter id="filter0_i_1:2443" x="0" y="0" width="44" height="36" filterUnits="userSpaceOnUse" color-interpolation-filters="sRGB">
<feFlood flood-opacity="0" result="BackgroundImageFix"/>
<feBlend mode="normal" in="SourceGraphic" in2="BackgroundImageFix" result="shape"/>
<feColorMatrix in="SourceAlpha" type="matrix" values="0 0 0 0 0 0 0 0 0 0 0 0 0 0 0 0 0 0 127 0" result="hardAlpha"/>
<feOffset/>
<feGaussianBlur stdDeviation="4.5"/>
<feComposite in2="hardAlpha" operator="arithmetic" k2="-1" k3="1"/>
<feColorMatrix type="matrix" values="0 0 0 0 0 0 0 0 0 0 0 0 0 0 0 0 0 0 0.1 0"/>
<feBlend mode="normal" in2="shape" result="effect1_innerShadow_1:2443"/>
</filter>
<filter id="filter1_d_1:2443" x="8" y="4" width="28" height="28.0892" filterUnits="userSpaceOnUse" color-interpolation-filters="sRGB">
<feFlood flood-opacity="0" result="BackgroundImageFix"/>
<feColorMatrix in="SourceAlpha" type="matrix" values="0 0 0 0 0 0 0 0 0 0 0 0 0 0 0 0 0 0 127 0" result="hardAlpha"/>
<feOffset/>
<feGaussianBlur stdDeviation="1"/>
<feColorMatrix type="matrix" values="0 0 0 0 1 0 0 0 0 0.788235 0 0 0 0 0 0 0 0 1 0"/>
<feBlend mode="normal" in2="BackgroundImageFix" result="effect1_dropShadow_1:2443"/>
<feBlend mode="normal" in="SourceGraphic" in2="effect1_dropShadow_1:2443" result="shape"/>
</filter>
</defs>
</svg>
