<svg width="29" height="30" viewBox="0 0 29 30" fill="none" xmlns="http://www.w3.org/2000/svg">
<path d="M14.6404 20.6259C13.9218 20.6259 13.2358 20.5045 12.5824 20.2619C11.9384 20.0099 11.4344 19.6879 11.0704 19.2959L11.3924 18.7639C11.7378 19.1279 12.1998 19.4265 12.7784 19.6599C13.3664 19.8839 13.9824 19.9959 14.6264 19.9959C15.5598 19.9959 16.2644 19.8185 16.7404 19.4639C17.2164 19.1092 17.4544 18.6472 17.4544 18.0779C17.4544 17.6392 17.3284 17.2892 17.0764 17.0279C16.8244 16.7665 16.5118 16.5659 16.1384 16.4259C15.7651 16.2859 15.2611 16.1412 14.6264 15.9919C13.9078 15.8145 13.3291 15.6419 12.8904 15.4739C12.4611 15.3059 12.0924 15.0492 11.7844 14.7039C11.4858 14.3492 11.3364 13.8779 11.3364 13.2899C11.3364 12.8139 11.4624 12.3799 11.7144 11.9879C11.9664 11.5865 12.3491 11.2692 12.8624 11.0359C13.3851 10.8025 14.0338 10.6859 14.8084 10.6859C15.3498 10.6859 15.8818 10.7652 16.4044 10.9239C16.9271 11.0825 17.3798 11.2972 17.7624 11.5679L17.4964 12.1419C17.1044 11.8712 16.6704 11.6659 16.1944 11.5259C15.7278 11.3859 15.2658 11.3159 14.8084 11.3159C13.9031 11.3159 13.2171 11.4979 12.7504 11.8619C12.2838 12.2259 12.0504 12.6972 12.0504 13.2759C12.0504 13.7145 12.1764 14.0645 12.4284 14.3259C12.6804 14.5872 12.9931 14.7879 13.3664 14.9279C13.7398 15.0679 14.2484 15.2172 14.8924 15.3759C15.6111 15.5532 16.1851 15.7259 16.6144 15.8939C17.0438 16.0619 17.4078 16.3185 17.7064 16.6639C18.0144 16.9999 18.1684 17.4572 18.1684 18.0359C18.1684 18.5119 18.0378 18.9459 17.7764 19.3379C17.5244 19.7299 17.1324 20.0425 16.6004 20.2759C16.0684 20.5092 15.4151 20.6259 14.6404 20.6259Z" stroke="#108534" stroke-width="1.8" stroke-miterlimit="10" stroke-linejoin="round"/>
<path d="M10.3064 7.00912V1.15918H27.8564V23.2589H21.3565V28.4589H1.85645V7.00912H10.3064Z" stroke="#108534" stroke-width="1.8" stroke-miterlimit="10" stroke-linejoin="round"/>
</svg>
