<svg width="54" height="54" viewBox="0 0 54 54" fill="none" xmlns="http://www.w3.org/2000/svg">
<path fill-rule="evenodd" clip-rule="evenodd" d="M54 27C54 41.9018 41.9018 54 27 54C12.0982 54 0 41.9018 0 27C0 12.0982 12.0982 0 27 0C41.9018 0 54 12.0982 54 27ZM51.75 27C51.75 40.6597 40.6597 51.75 27 51.75C13.3403 51.75 2.25 40.6597 2.25 27C2.25 13.3403 13.3403 2.25 27 2.25C40.6597 2.25 51.75 13.3403 51.75 27ZM18 38.8057L32.49 27L18 15.1582L19.5255 13.5L36 27L19.4963 40.5L18 38.8057Z" fill="#1A9F29"/>
</svg>
