<svg width="54" height="54" viewBox="0 0 54 54" fill="none" xmlns="http://www.w3.org/2000/svg">
<path fill-rule="evenodd" clip-rule="evenodd" d="M0 27C0 41.9017 12.0982 54 27 54C41.9017 54 54 41.9017 54 27C54 12.0982 41.9017 0 27 0C12.0982 0 0 12.0982 0 27ZM2.25 27C2.25 40.6598 13.3403 51.75 27 51.75C40.6598 51.75 51.75 40.6598 51.75 27C51.75 13.3403 40.6598 2.25 27 2.25C13.3403 2.25 2.25 13.3403 2.25 27ZM36 38.8057L21.51 27L36 15.1582L34.4745 13.5L18 27L34.5037 40.5L36 38.8057Z" fill="#1A9F29"/>
</svg>
