<svg width="16" height="16" viewBox="0 0 16 16" fill="none" xmlns="http://www.w3.org/2000/svg">
<path d="M8 0C3.582 0 0 3.582 0 8C0 12.418 3.582 16 8 16C12.418 16 16 12.418 16 8C16 3.582 12.418 0 8 0ZM7.85936 10.3077C7.47544 10.698 6.84897 10.7071 6.45394 10.3279L4.65208 8.59855C4.38452 8.34176 4.37723 7.91623 4.63582 7.65041C4.89142 7.38766 5.31098 7.37986 5.57618 7.63291L6.4361 8.45344C6.83164 8.83086 7.45697 8.82067 7.84 8.43055L10.7499 5.46679C11.0088 5.20311 11.4327 5.20027 11.6951 5.46045C11.9559 5.71898 11.9585 6.13965 11.7011 6.40144L7.85936 10.3077Z" fill="#1A9F29"/>
</svg>
