<svg width="30" height="30" viewBox="0 0 30 30" fill="none" xmlns="http://www.w3.org/2000/svg">
<path d="M14.8947 7.92315C11.0321 7.92315 7.89193 11.0633 7.89072 14.9247C7.8895 16.5009 8.35215 17.6811 9.12807 18.9161L8.42136 21.5001L11.0709 20.8043C12.2585 21.5086 13.3914 21.9311 14.8899 21.9324C18.7489 21.9324 21.8926 18.791 21.8939 14.9308C21.8951 11.0609 18.7671 7.92436 14.8947 7.92315ZM19.0136 17.9337C18.8387 18.4255 17.9972 18.8736 17.5929 18.9343C17.2298 18.9889 16.7708 19.0108 16.2669 18.8505C15.9609 18.7534 15.5686 18.6234 15.0671 18.4073C12.9555 17.4954 11.5773 15.3691 11.4716 15.2295C11.366 15.0886 10.6119 14.0881 10.6119 13.0523C10.6119 12.0165 11.1559 11.5065 11.349 11.2964C11.5421 11.0864 11.7691 11.0329 11.91 11.0329L12.3131 11.0402C12.4419 11.0463 12.6155 10.9916 12.7867 11.4021C12.9616 11.8234 13.3829 12.8592 13.4351 12.9649C13.4874 13.0705 13.5226 13.1931 13.4521 13.334C13.3817 13.4749 13.3465 13.5623 13.2421 13.6849L12.9264 14.0541C12.8207 14.1585 12.7114 14.2726 12.8341 14.4839C12.9567 14.6952 13.3793 15.3837 14.0046 15.9423C14.8085 16.6599 15.4873 16.8821 15.6974 16.9866C15.9074 17.091 16.0301 17.074 16.1539 16.9344C16.2766 16.7935 16.6797 16.3199 16.8206 16.1086C16.9614 15.8986 17.1011 15.9326 17.2941 16.003C17.4872 16.0734 18.5218 16.5822 18.7319 16.6879C18.9419 16.7935 19.0828 16.8457 19.135 16.9331C19.1896 17.0206 19.1896 17.4419 19.0136 17.9337ZM14.8571 0.428574C6.81 0.428574 0.285645 6.95293 0.285645 15C0.285645 23.0471 6.81 29.5714 14.8571 29.5714C22.9041 29.5714 29.4285 23.0471 29.4285 15C29.4285 6.95293 22.9041 0.428574 14.8571 0.428574ZM14.8923 23.3543C13.4825 23.3543 12.0934 22.9997 10.8633 22.3294L6.39836 23.5L7.59322 19.1346C6.85614 17.8572 6.46757 16.4074 6.46879 14.9235C6.47 10.2789 10.2489 6.5 14.8923 6.5C17.146 6.50122 19.2613 7.37793 20.8508 8.96986C22.4415 10.5618 23.317 12.6783 23.3158 14.9296C23.3146 19.5742 19.5357 23.3543 14.8923 23.3543Z" fill="#1A9F29"/>
</svg>
