<svg width="30" height="30" viewBox="0 0 30 30" fill="none" xmlns="http://www.w3.org/2000/svg">
<path d="M14.5714 0.428574C6.52436 0.428574 0 6.95293 0 15C0 23.0471 6.52436 29.5714 14.5714 29.5714C22.6185 29.5714 29.1429 23.0471 29.1429 15C29.1429 6.95293 22.6185 0.428574 14.5714 0.428574ZM19.9641 20.9403C17.4116 21.1151 11.7264 21.1151 9.17757 20.9403C6.41386 20.7509 6.09207 19.3981 6.07143 15C6.09207 10.5934 6.4175 9.24914 9.17757 9.05972C11.7264 8.88486 17.4129 8.88486 19.9641 9.05972C22.729 9.24914 23.0496 10.6019 23.0714 15C23.0496 19.4066 22.7254 20.7509 19.9641 20.9403ZM12.1429 12.1561L18.1135 14.9951L12.1429 17.8439V12.1561Z" fill="#1A9F29"/>
</svg>
