<svg width="73" height="39" viewBox="0 0 73 39" fill="none" xmlns="http://www.w3.org/2000/svg"><g filter="url(#filter0_dd)"><path d="M30.198 21.61v3.96h-15.87v-3.15l8.1-7.65c.86-.82 1.44-1.52 1.74-2.1.3-.6.45-1.19.45-1.77 0-.84-.29-1.48-.87-1.92-.56-.46-1.39-.69-2.49-.69-.92 0-1.75.18-2.49.54-.74.34-1.36.86-1.86 1.56l-3.54-2.28c.82-1.22 1.95-2.17 3.39-2.85 1.44-.7 3.09-1.05 4.95-1.05 1.56 0 2.92.26 4.08.78 1.18.5 2.09 1.22 2.73 2.16.66.92.99 2.01.99 3.27 0 1.14-.24 2.21-.72 3.21s-1.41 2.14-2.79 3.42l-4.83 4.56h9.03zM48.584 4.57v3.15l-7.8 17.85h-5.28l7.53-17.04h-6.96v3.42h-4.32V4.57h16.83zm10.578 21.36c-1.74 0-3.29-.43-4.65-1.29-1.36-.86-2.43-2.1-3.21-3.72-.76-1.64-1.14-3.59-1.14-5.85s.38-4.2 1.14-5.82c.78-1.64 1.85-2.89 3.21-3.75 1.36-.86 2.91-1.29 4.65-1.29 1.74 0 3.29.43 4.65 1.29 1.36.86 2.42 2.11 3.18 3.75.78 1.62 1.17 3.56 1.17 5.82 0 2.26-.39 4.21-1.17 5.85-.76 1.62-1.82 2.86-3.18 3.72-1.36.86-2.91 1.29-4.65 1.29zm0-4.11c1.28 0 2.28-.55 3-1.65.74-1.1 1.11-2.8 1.11-5.1s-.37-4-1.11-5.1c-.72-1.1-1.72-1.65-3-1.65-1.26 0-2.26.55-3 1.65-.72 1.1-1.08 2.8-1.08 5.1s.36 4 1.08 5.1c.74 1.1 1.74 1.65 3 1.65z" fill="url(#paint0_linear)"/></g><defs><linearGradient id="paint0_linear" x1="41.345" y1="-3.43" x2="41.345" y2="33.215" gradientUnits="userSpaceOnUse"><stop stop-color="#1A9F29"/><stop offset="1" stop-color="#93D600"/></linearGradient><filter id="filter0_dd" x=".338" y=".953" width="71.895" height="38.007" filterUnits="userSpaceOnUse" color-interpolation-filters="sRGB"><feFlood flood-opacity="0" result="BackgroundImageFix"/><feColorMatrix in="SourceAlpha" values="0 0 0 0 0 0 0 0 0 0 0 0 0 0 0 0 0 0 127 0"/><feOffset dx="-6.515" dy="6.515"/><feGaussianBlur stdDeviation="3.257"/><feColorMatrix values="0 0 0 0 0 0 0 0 0 0 0 0 0 0 0 0 0 0 0.13 0"/><feBlend in2="BackgroundImageFix" result="effect1_dropShadow"/><feColorMatrix in="SourceAlpha" values="0 0 0 0 0 0 0 0 0 0 0 0 0 0 0 0 0 0 127 0"/><feOffset dy=".814"/><feGaussianBlur stdDeviation="2.036"/><feColorMatrix values="0 0 0 0 0.443137 0 0 0 0 0.776471 0 0 0 0 0.0470588 0 0 0 0.5 0"/><feBlend in2="effect1_dropShadow" result="effect2_dropShadow"/><feBlend in="SourceGraphic" in2="effect2_dropShadow" result="shape"/></filter></defs></svg>