<svg width="22" height="19" viewBox="0 0 22 19" fill="none" xmlns="http://www.w3.org/2000/svg"><path d="M15.755 1.158a.658.658 0 000 1.315V1.158zm1.667 7.24a.658.658 0 001.315 0h-1.315zm-8.18 7.711a.658.658 0 000-1.315v1.315zM3.198 2.473a.658.658 0 000-1.315v1.315zm11.82-1.6a.658.658 0 00-1.315 0h1.315zm-1.315 1.88a.658.658 0 001.315 0h-1.315zM5.987 1.159a.658.658 0 000 1.315V1.158zm6.977 1.315a.658.658 0 000-1.315v1.315zM5.25.873a.658.658 0 10-1.315 0H5.25zm-1.315 1.88a.658.658 0 001.315 0H3.935zm16.936 8.513l.467.463a.658.658 0 000-.925l-.467.462zm-1.616-1.634l.468-.462a.658.658 0 00-.935 0l.467.462zm-4.847 4.902l-.467.462a.657.657 0 00.935 0l-.468-.462zm-2.153-2.179l.467-.462a.658.658 0 00-.935 0l.467.462zm-1.616 1.635l-.468-.463a.658.658 0 000 .925l.468-.462zm3.77 3.804l-.468.463a.657.657 0 00.934 0l-.467-.463zm1.345-15.321h1.86V1.158h-1.86v1.315zm1.86 0a.19.19 0 01-.192-.186h1.315c0-.616-.494-1.13-1.122-1.13v1.316zm-.192-.186v6.11h1.315v-6.11h-1.315zm-8.18 12.507H1.337v1.315h7.907v-1.315zm-7.906 0a.19.19 0 01.193.186H.214c0 .616.494 1.13 1.122 1.13v-1.316zm.193.186V2.288H.214V14.98h1.315zm0-12.692a.19.19 0 01-.193.185V1.158c-.628 0-1.122.513-1.122 1.13h1.315zm-.193.185h1.86V1.158h-1.86v1.315zM.871 6.236H18.08V4.92H.871v1.315zM13.701.873v1.88h1.316V.874h-1.315zm-7.714 1.6h6.977V1.158H5.987v1.315zM3.935.873v1.88H5.25V.874H3.935zm2.051 7.715h1.396V7.273H5.986v1.315zm2.326 0h1.395V7.273H8.312v1.315zm2.325 0h1.395V7.273h-1.395v1.315zm2.326 0h1.395V7.273h-1.395v1.315zm-9.3 2.345h1.395V9.618H3.662v1.315zm2.325 0h1.395V9.618H5.988v1.315zm2.325 0H9.71V9.618H8.313v1.315zm2.326 0h1.395V9.618h-1.395v1.315zm2.325 0h1.396V9.618h-1.396v1.315zm-9.302 2.353h1.395V11.97H3.662v1.315zm2.326 0h1.395V11.97H5.988v1.315zm2.325 0h1.395V11.97H8.313v1.315zm13.026-2.482L19.723 9.17l-.935.924 1.616 1.635.935-.925zM18.788 9.17l-4.847 4.902.935.925 4.847-4.903-.935-.924zm-3.912 4.902l-2.154-2.179-.935.925 2.154 2.178.935-.924zm-3.09-2.179l-1.615 1.634.935.925 1.616-1.634-.935-.925zm-1.614 2.56l3.77 3.804.933-.926-3.77-3.804-.933.925zm4.704 3.804l6.462-6.528-.934-.925-6.463 6.527.934.926z" fill="#108534"/></svg>