<svg width="25" height="25" viewBox="0 0 25 25" fill="none" xmlns="http://www.w3.org/2000/svg"><path d="M12.883 19.315a.993.993 0 110-1.985.993.993 0 010 1.985zM11.98 6.503a.902.902 0 111.804 0v8.39a.902.902 0 11-1.805 0v-8.39zm9.387-2.425A11.957 11.957 0 0012.883.563a11.959 11.959 0 00-8.485 3.515 11.956 11.956 0 00-3.515 8.485 11.958 11.958 0 003.515 8.485 11.957 11.957 0 008.485 3.515 11.956 11.956 0 008.485-3.515 11.956 11.956 0 003.515-8.485 11.954 11.954 0 00-3.515-8.485z" fill="#1A9F29"/></svg>