<svg width="40" height="40" viewBox="0 0 40 40" fill="none" xmlns="http://www.w3.org/2000/svg"><path d="M28.75 12.147v2.115a.898.898 0 01-.897.898h-2.115a.896.896 0 01-.896-.898v-2.115c0-.495.398-.897.896-.897h2.115c.495 0 .897.402.897.897zM20 24.485a4.486 4.486 0 100-8.97A4.483 4.483 0 0015.515 20 4.483 4.483 0 0020 24.485zM27.102 19c.046.327.076.66.076.998A7.178 7.178 0 0120 27.178 7.178 7.178 0 0112.822 20c0-.34.03-.672.076-.998.045-.324.11-.639.197-.945H11.25v9.798c0 .495.402.897.897.897h15.706a.897.897 0 00.897-.897v-9.798h-1.845c.083.306.15.621.197.943zM40 20c0 11.045-8.955 20-20 20S0 31.045 0 20 8.955 0 20 0s20 8.955 20 20zm-8.333-8.975a2.692 2.692 0 00-2.692-2.692h-17.95a2.692 2.692 0 00-2.692 2.692v17.948a2.692 2.692 0 002.692 2.694h17.95a2.692 2.692 0 002.692-2.694V11.025z" fill="#1A9F29"/></svg>