<svg width="81" height="105" viewBox="0 0 81 105" fill="none" xmlns="http://www.w3.org/2000/svg"><path d="M7.617 104.853h-1.63V103H1.884v1.847H.202l-.13-3.244h.533c.28-.187.504-.506.673-.958.173-.455.295-1.107.368-1.956l.232-3.224h5.129v6.138h.802l-.192 3.25zm-4.957-3.25h2.536v-4.735H3.59l-.14 1.883c-.103 1.222-.367 2.172-.791 2.852zm12.031-2.215c0 .735-.136 1.385-.408 1.951a3.03 3.03 0 01-1.165 1.309c-.5.304-1.07.455-1.713.455-.641 0-1.21-.146-1.707-.439a3.056 3.056 0 01-1.165-1.268c-.276-.549-.42-1.178-.434-1.889v-.424c0-.739.134-1.389.403-1.951a3.032 3.032 0 011.165-1.31c.507-.307 1.083-.46 1.728-.46.638 0 1.207.152 1.708.455.5.304.888.737 1.164 1.3.28.558.421 1.2.425 1.924v.347zm-1.847-.316c0-.748-.126-1.316-.378-1.702a1.196 1.196 0 00-1.07-.585c-.912 0-1.393.683-1.445 2.05l-.005.553c0 .738.123 1.306.367 1.702.245.397.61.596 1.092.596.46 0 .813-.195 1.061-.585.249-.39.375-.951.378-1.682v-.347zm5.17-3.607l1.682 5.243 1.676-5.243h2.391V103h-1.822v-1.759l.176-3.602L20.296 103h-1.2l-1.828-5.366.177 3.607V103h-1.817v-7.535h2.386zm15.928 3.923c0 .735-.136 1.385-.409 1.951a3.03 3.03 0 01-1.164 1.309c-.5.304-1.071.455-1.713.455-.642 0-1.211-.146-1.708-.439a3.055 3.055 0 01-1.164-1.268c-.276-.549-.421-1.178-.435-1.889v-.424c0-.739.135-1.389.404-1.951a3.033 3.033 0 011.164-1.31c.507-.307 1.083-.46 1.729-.46.638 0 1.207.152 1.707.455.5.304.889.737 1.165 1.3.28.558.42 1.2.424 1.924v.347zm-1.848-.316c0-.748-.125-1.316-.377-1.702a1.196 1.196 0 00-1.071-.585c-.911 0-1.393.683-1.444 2.05l-.005.553c0 .738.122 1.306.367 1.702.245.397.609.596 1.092.596.459 0 .812-.195 1.06-.585.25-.39.375-.951.378-1.682v-.347zm8.255-2.204h-2.262V103h-1.816v-6.132h-2.22v-1.403h6.297v1.403zM49.776 103H47.96v-6.132h-2.707V103h-1.816v-7.535h6.34V103zm2.95-2.556V103H50.91v-7.535h3.007c.576 0 1.085.107 1.526.321.446.21.789.513 1.03.906.245.39.368.833.368 1.33 0 .735-.264 1.323-.792 1.764-.524.439-1.245.658-2.163.658h-1.16zm0-1.403h1.19c.352 0 .62-.088.802-.264.186-.176.28-.424.28-.745 0-.352-.095-.633-.285-.843-.19-.21-.449-.318-.776-.321h-1.211v2.173zm11.467.347c0 .735-.136 1.385-.409 1.951a3.03 3.03 0 01-1.164 1.309c-.5.304-1.071.455-1.713.455-.642 0-1.21-.146-1.708-.439a3.055 3.055 0 01-1.164-1.268c-.276-.549-.42-1.178-.434-1.889v-.424c0-.739.134-1.389.403-1.951a3.032 3.032 0 011.164-1.31c.508-.307 1.084-.46 1.729-.46.638 0 1.207.152 1.708.455.5.304.888.737 1.164 1.3.28.558.42 1.2.424 1.924v.347zm-1.847-.316c0-.748-.126-1.316-.378-1.702a1.196 1.196 0 00-1.071-.585c-.91 0-1.392.683-1.444 2.05l-.005.553c0 .738.122 1.306.367 1.702.245.397.61.596 1.092.596.459 0 .813-.195 1.061-.585.248-.39.374-.951.378-1.682v-.347zm7.545-2.965c.98 0 1.76.293 2.339.88.583.583.874 1.347.874 2.292 0 .463-.077.883-.233 1.263a2.733 2.733 0 01-.641.962c-.583.57-1.363.854-2.34.854v.952h-1.748v-.952c-.99 0-1.777-.284-2.36-.854-.583-.569-.875-1.307-.875-2.214 0-.48.078-.915.233-1.304.155-.39.373-.723.652-1 .587-.586 1.37-.879 2.35-.879v-.952h1.749v.952zm-1.817 1.46c-.451 0-.809.151-1.07.455-.26.303-.389.726-.389 1.268 0 .496.131.89.393 1.179.263.287.64.43 1.134.43v-3.333h-.068zm1.817 0v3.332h.077c.432 0 .777-.141 1.035-.424.263-.287.394-.685.394-1.196 0-.531-.128-.948-.383-1.252-.252-.307-.626-.46-1.123-.46zm8.538-2.102h1.817V103H78.43v-4.75L75.724 103h-1.817v-7.535h1.817v4.756l2.706-4.756z" fill="#868686"/><path d="M81 21.93L40.376 0v5.16L81 27.09v-5.16z" fill="#1A9F29"/><path fill-rule="evenodd" clip-rule="evenodd" d="M0 89.461h7.065v-60.39L0 33.012v56.449zm80.961 0h-40.48V10.473l40.48 22.539v56.449z" fill="#1A9F29"/><path fill-rule="evenodd" clip-rule="evenodd" d="M6.844 89.463h33.637V10.475L6.85 29.199l-.007 60.264zm29.281-36.1H11.147V31.26l24.978-13.6v35.703zM11.147 57.83h25.03v27.34h-25.03V57.83z" fill="#08600A"/></svg>