<svg width="56" height="56" viewBox="0 0 56 56" fill="none" xmlns="http://www.w3.org/2000/svg"><circle cx="28" cy="28" r="20.843" stroke="#FFC900" stroke-width=".315"/><g filter="url(#filter0_d)"><circle cx="28" cy="28" r="16.5" fill="#FFC900"/></g><g filter="url(#filter1_dd)"><path d="M35.111 31.111a10.09 10.09 0 01-3.173-.507.907.907 0 00-.907.214l-1.955 1.955a13.373 13.373 0 01-5.858-5.857l1.955-1.965a.854.854 0 00.223-.889 10.097 10.097 0 01-.507-3.173c0-.489-.4-.889-.889-.889h-3.111c-.489 0-.889.4-.889.889C20 29.236 26.764 36 35.111 36c.489 0 .889-.4.889-.889V32c0-.489-.4-.889-.889-.889zM34.222 28H36a8 8 0 00-8-8v1.778A6.218 6.218 0 0134.222 28zm-3.555 0h1.777A4.446 4.446 0 0028 23.556v1.777A2.663 2.663 0 0130.667 28z" fill="#fff"/></g><defs><filter id="filter0_d" x=".5" y=".5" width="55" height="55" filterUnits="userSpaceOnUse" color-interpolation-filters="sRGB"><feFlood flood-opacity="0" result="BackgroundImageFix"/><feColorMatrix in="SourceAlpha" values="0 0 0 0 0 0 0 0 0 0 0 0 0 0 0 0 0 0 127 0"/><feOffset/><feGaussianBlur stdDeviation="5.5"/><feColorMatrix values="0 0 0 0 1 0 0 0 0 0.789743 0 0 0 0 0 0 0 0 1 0"/><feBlend in2="BackgroundImageFix" result="effect1_dropShadow"/><feBlend in="SourceGraphic" in2="effect1_dropShadow" result="shape"/></filter><filter id="filter1_dd" x="15" y="16" width="25" height="27" filterUnits="userSpaceOnUse" color-interpolation-filters="sRGB"><feFlood flood-opacity="0" result="BackgroundImageFix"/><feColorMatrix in="SourceAlpha" values="0 0 0 0 0 0 0 0 0 0 0 0 0 0 0 0 0 0 127 0"/><feOffset dx="-1" dy="3"/><feGaussianBlur stdDeviation="2"/><feColorMatrix values="0 0 0 0 0 0 0 0 0 0 0 0 0 0 0 0 0 0 0.15 0"/><feBlend in2="BackgroundImageFix" result="effect1_dropShadow"/><feColorMatrix in="SourceAlpha" values="0 0 0 0 0 0 0 0 0 0 0 0 0 0 0 0 0 0 127 0"/><feOffset/><feGaussianBlur stdDeviation="2"/><feColorMatrix values="0 0 0 0 1 0 0 0 0 1 0 0 0 0 1 0 0 0 1 0"/><feBlend in2="effect1_dropShadow" result="effect2_dropShadow"/><feBlend in="SourceGraphic" in2="effect2_dropShadow" result="shape"/></filter></defs></svg>