<svg width="24" height="24" viewBox="0 0 24 24" fill="none" xmlns="http://www.w3.org/2000/svg"><path d="M22.667 16.667c-1.667 0-3.267-.267-4.76-.76a1.36 1.36 0 00-1.36.32l-2.934 2.933a20.06 20.06 0 01-8.786-8.787L7.76 7.427a1.28 1.28 0 00.333-1.334 15.147 15.147 0 01-.76-4.76C7.333.6 6.733 0 6 0H1.333C.6 0 0 .6 0 1.333 0 13.853 10.147 24 22.667 24 23.4 24 24 23.4 24 22.667V18c0-.733-.6-1.333-1.333-1.333zM21.333 12H24c0-6.627-5.373-12-12-12v2.667A9.326 9.326 0 0121.333 12zM16 12h2.667A6.67 6.67 0 0012 5.333V8c2.213 0 4 1.787 4 4z" fill="#1A9F29"/></svg>