<svg width="28" height="29" viewBox="0 0 28 29" fill="none" xmlns="http://www.w3.org/2000/svg"><g filter="url(#filter0_d)"><path fill-rule="evenodd" clip-rule="evenodd" d="M17.853 18.622A9.439 9.439 0 0111.5 21.07c-5.243 0-9.5-4.273-9.5-9.536C2 6.273 6.257 2 11.5 2S21 6.273 21 11.535a9.513 9.513 0 01-2.44 6.377L26 25.38l-.707.71-7.44-7.468zM11.5 3.004c4.691 0 8.5 3.823 8.5 8.531 0 4.709-3.809 8.532-8.5 8.532S3 16.244 3 11.535c0-4.708 3.809-8.531 8.5-8.531z" fill="#FFC900"/></g><defs><filter id="filter0_d" x="0" y="0" width="28" height="28.089" filterUnits="userSpaceOnUse" color-interpolation-filters="sRGB"><feFlood flood-opacity="0" result="BackgroundImageFix"/><feColorMatrix in="SourceAlpha" values="0 0 0 0 0 0 0 0 0 0 0 0 0 0 0 0 0 0 127 0"/><feOffset/><feGaussianBlur stdDeviation="1"/><feColorMatrix values="0 0 0 0 1 0 0 0 0 0.788235 0 0 0 0 0 0 0 0 1 0"/><feBlend in2="BackgroundImageFix" result="effect1_dropShadow"/><feBlend in="SourceGraphic" in2="effect1_dropShadow" result="shape"/></filter></defs></svg>