<svg width="40" height="40" viewBox="0 0 40 40" fill="none" xmlns="http://www.w3.org/2000/svg"><path fill-rule="evenodd" clip-rule="evenodd" d="M20 0C8.957 0 0 8.953 0 20c0 11.045 8.957 20 20 20 11.045 0 20-8.955 20-20C40 8.953 31.045 0 20 0zm5.373 29.785a1.16 1.16 0 001.077.142 1.13 1.13 0 00.703-.819c.845-3.97 2.895-14.02 3.664-17.63a.761.761 0 00-.252-.738.784.784 0 00-.775-.137c-4.077 1.51-16.632 6.22-21.763 8.119a.807.807 0 00-.527.778.805.805 0 00.577.742c2.301.688 5.321 1.646 5.321 1.646s1.412 4.264 2.147 6.43a.853.853 0 00.587.56.841.841 0 00.79-.201l3.008-2.84s3.473 2.545 5.443 3.948zm-10.705-8.437l1.634 5.385.363-3.41s6.305-5.688 9.902-8.93a.27.27 0 00.031-.366.275.275 0 00-.365-.062l-11.565 7.383z" fill="#1A9F29"/></svg>