<svg width="40" height="40" viewBox="0 0 40 40" fill="none" xmlns="http://www.w3.org/2000/svg"><path d="M20 0C8.955 0 0 8.955 0 20s8.955 20 20 20 20-8.955 20-20S31.045 0 20 0zm10.573 26.938h-3.111c-1.759 0-2.054-1.001-3.504-2.448-1.308-1.308-2.033-.305-2.003 1.558.01.495-.235.89-.825.89-1.842 0-4.49.26-7.173-2.633-2.745-2.965-5.624-8.913-5.624-9.498 0-.347.287-.502.765-.502h3.164c.838 0 .908.415 1.143.947.973 2.218 3.302 6.67 3.923 4.185.357-1.427.502-4.732-1.025-5.017-.866-.16.66-1.087 2.87-1.087.55 0 1.147.059 1.757.2 1.122.26 1.127.764 1.11 1.497-.057 2.777-.392 4.643.34 5.115.698.452 2.535-2.503 3.507-4.785.265-.63.318-1.053 1.071-1.053h3.87c2.027 0-.265 2.913-2.016 5.186-1.412 1.832-1.337 1.867.305 3.39 1.168 1.085 2.55 2.567 2.55 3.405 0 .397-.31.65-1.094.65z" fill="#1A9F29"/></svg>